<svg xmlns="http://www.w3.org/2000/svg" xmlns:xlink="http://www.w3.org/1999/xlink" viewBox="0 0 257.9 263.83"><defs><style>.cls-1{fill:#fff;}.cls-2{fill:#dbe2e8;}.cls-3{opacity:0.15;}.cls-4{fill:#0188d0;}.cls-5{fill:#006cb7;}.cls-6{fill:#f9c117;}.cls-7{fill:#f3a400;}.cls-8{fill:#eb3543;}.cls-9{fill:#ca2843;}.cls-10{fill:#069982;}.cls-11{fill:#007a6f;}.cls-12{fill:#5c242e;}.cls-13{fill:#d0d0d0;}.cls-14{fill:#1d3b50;}.cls-15{fill:#de8474;}.cls-16{fill:#e9ae86;}.cls-17{fill:#011b2e;}.cls-18{fill:url(#Degradado_sin_nombre_5);}.cls-19{fill:url(#Degradado_sin_nombre_5-2);}.cls-20{fill:#7e3f3e;}.cls-21{fill:#420e1f;}.cls-22{fill:#b3b3b3;}.cls-23{fill:url(#Degradado_sin_nombre_5-3);}.cls-24{opacity:0.2;}.cls-25{fill:#133248;}.cls-26{opacity:0.5;fill:url(#Degradado_sin_nombre_5-4);}</style><linearGradient id="Degradado_sin_nombre_5" x1="121.52" y1="105.42" x2="121.52" y2="83.58" gradientUnits="userSpaceOnUse"><stop offset="0" stop-color="#fff"/><stop offset="0.22" stop-color="#fff" stop-opacity="0.76"/><stop offset="0.6" stop-color="#fff" stop-opacity="0.36"/><stop offset="0.87" stop-color="#fff" stop-opacity="0.1"/><stop offset="1" stop-color="#fff" stop-opacity="0"/></linearGradient><linearGradient id="Degradado_sin_nombre_5-2" x1="136.55" y1="105.42" x2="136.55" y2="83.58" xlink:href="#Degradado_sin_nombre_5"/><linearGradient id="Degradado_sin_nombre_5-3" x1="124.04" y1="237" x2="124.04" y2="95.03" xlink:href="#Degradado_sin_nombre_5"/><linearGradient id="Degradado_sin_nombre_5-4" x1="1019.49" y1="103.66" x2="1071.02" y2="153.48" gradientTransform="matrix(-1, 0, 0, 1, 1241.06, 0)" xlink:href="#Degradado_sin_nombre_5"/></defs><title>контакты</title><g id="Слой_2" data-name="Слой 2"><g id="OBJECTS"><rect class="cls-1" x="103.24" width="135.98" height="39.3"/><rect class="cls-2" x="108.04" y="4.81" width="126.37" height="29.69"/><rect class="cls-3" x="108.04" y="4.81" width="126.37" height="3.05"/><rect class="cls-3" x="103.24" y="39.3" width="135.98" height="4.03"/><rect class="cls-4" x="108.04" y="10.81" width="7.01" height="23.69"/><rect class="cls-5" x="108.04" y="14.09" width="7.01" height="1.72"/><rect class="cls-5" x="108.04" y="17.93" width="7.01" height="1.72"/><rect class="cls-4" x="139.87" y="10.32" width="7.01" height="23.69" transform="translate(0.92 49.64) rotate(-19.7)"/><rect class="cls-5" x="137.28" y="14.05" width="7.01" height="1.72" transform="translate(3.22 48.34) rotate(-19.7)"/><rect class="cls-5" x="138.57" y="17.67" width="7.01" height="1.72" transform="translate(2.07 48.99) rotate(-19.7)"/><rect class="cls-6" x="115.05" y="10.81" width="7.01" height="23.69"/><rect class="cls-7" x="115.05" y="14.09" width="7.01" height="1.72"/><rect class="cls-7" x="115.05" y="17.93" width="7.01" height="1.72"/><rect class="cls-8" x="122.06" y="10.81" width="7.01" height="23.69"/><rect class="cls-9" x="122.06" y="14.09" width="7.01" height="1.72"/><rect class="cls-9" x="122.06" y="17.93" width="7.01" height="1.72"/><rect class="cls-10" x="129.07" y="10.81" width="7.01" height="23.69"/><rect class="cls-11" x="129.07" y="14.09" width="7.01" height="1.72"/><rect class="cls-11" x="129.07" y="17.93" width="7.01" height="1.72"/><path class="cls-10" d="M171.22,17.86s0-3.59,6.22-3C177.44,14.84,174.33,19.59,171.22,17.86Z"/><path class="cls-10" d="M171.22,19.59s0-3.59-6.22-3C165,16.57,168.12,21.31,171.22,19.59Z"/><path class="cls-12" d="M171.61,14.7v6.07h-.78V14.7a.39.39,0,0,1,.39-.39h0A.39.39,0,0,1,171.61,14.7Z"/><polygon class="cls-8" points="176.84 23.25 176.46 25.73 175.07 34.49 167.37 34.49 165.99 25.73 165.6 23.25 176.84 23.25"/><rect class="cls-8" x="163.52" y="20.78" width="15.41" height="2.48"/><polygon class="cls-9" points="176.84 23.25 176.46 25.73 165.99 25.73 165.6 23.25 176.84 23.25"/><path class="cls-10" d="M171.18,14.94s-3.06-1.2,0-7.09C171.22,7.85,174.33,13.3,171.18,14.94Z"/><path class="cls-1" d="M208.87,33.53H188.23v-4.8h20.64A2.4,2.4,0,0,1,211,30h0a2.4,2.4,0,0,1,0,2.22h0A2.4,2.4,0,0,1,208.87,33.53Z"/><path class="cls-8" d="M212.06,31.13a3.36,3.36,0,0,0-3.25-3.35H188.23a.48.48,0,0,0,0,1H208.7a2.4,2.4,0,0,1,0,4.8H188.23a.48.48,0,0,0,0,1H208.8A3.36,3.36,0,0,0,212.06,31.13Z"/><path class="cls-13" d="M188.23,30.18h20.38a.16.16,0,0,0,0-.32H188.23Z"/><path class="cls-13" d="M188.23,31.29h20.38a.16.16,0,0,0,0-.32H188.23Z"/><path class="cls-13" d="M188.23,32.4h20.38a.16.16,0,0,0,0-.32H188.23Z"/><path class="cls-1" d="M211.12,24.42a2.4,2.4,0,0,1-2.4,2.4H188.08V22h20.64a2.4,2.4,0,0,1,1.74.74,2.32,2.32,0,0,1,.39.55A2.4,2.4,0,0,1,211.12,24.42Z"/><path class="cls-13" d="M188.08,23.47h20.38a.16.16,0,0,0,0-.32H188.08Z"/><path class="cls-13" d="M188.08,24.58h20.38a.16.16,0,0,0,0-.32H188.08Z"/><path class="cls-13" d="M188.08,25.69h20.38a.16.16,0,0,0,0-.32H188.08Z"/><path class="cls-4" d="M211.9,24.42a3.36,3.36,0,0,0-3.25-3.35H188.08a.48.48,0,1,0,0,1h20.47a2.4,2.4,0,1,1,0,4.8H188.08a.48.48,0,1,0,0,1h20.57A3.36,3.36,0,0,0,211.9,24.42Z"/><rect class="cls-10" x="212.44" y="7.85" width="3.92" height="26.57"/><rect class="cls-11" x="212.44" y="11.16" width="3.92" height="2.1"/><rect class="cls-11" x="212.44" y="29.48" width="3.92" height="2.1"/><rect class="cls-4" x="216.36" y="13.21" width="4.83" height="21.22"/><rect class="cls-5" x="216.36" y="16.1" width="4.83" height="2.29"/><rect class="cls-6" x="225.3" y="13.14" width="4.83" height="21.22" transform="translate(10.01 94.64) rotate(-23.99)"/><rect class="cls-7" x="222.63" y="16.6" width="4.83" height="2.29" transform="translate(12.22 93.03) rotate(-23.99)"/><path class="cls-14" d="M115.37,108.1h15.32a35.62,35.62,0,0,1,35.62,35.62v41a0,0,0,0,1,0,0H79.74a0,0,0,0,1,0,0v-41A35.62,35.62,0,0,1,115.37,108.1Z"/><path class="cls-4" d="M100.87,164c-.29,3,.55,16.86.42,20.63h51.56c-.59-5.29-1.52-20.43-1.76-24-1.29-19.6-2.18-33.47-2.18-33.47l-16.34-4.14a29.75,29.75,0,0,0-3.89-.37,48.7,48.7,0,0,0-14.7,1.63,109.79,109.79,0,0,0-14.76,4.87S102.44,148.17,100.87,164Z"/><path class="cls-15" d="M137.08,90s3.73-4.26,6.78-.56c2.68,3.26,1,11.87-5.51,11.63Z"/><path class="cls-16" d="M132.47,124.53c-3.3,3.89-9,3.4-15.8-.7l-.73-9.7L115.4,107l18,3.49-.72,11.21Z"/><path class="cls-15" d="M132.56,123.05c-6.12,0-13-4-16.46-6.78l-.7-9.26,18,3.49Z"/><path class="cls-17" d="M137.5,74.49s4.6,1.16,5.66,6.93-1.59,8.21-1.59,8.21l-6.63-14.15Z"/><path class="cls-16" d="M106.36,91.85s2.83,21.6,18.39,25.38,19.84-22.82,16.36-33.8C137.26,71.29,124.44,70,116,73.41,105.89,77.47,106.36,91.85,106.36,91.85Z"/><circle class="cls-17" cx="121.52" cy="91.24" r="2" transform="translate(-11.64 18.02) rotate(-8.09)"/><circle class="cls-17" cx="134.72" cy="90.8" r="2" transform="translate(-11.44 19.87) rotate(-8.1)"/><path class="cls-17" d="M116.32,88.18A51.64,51.64,0,0,1,124,84.53s-.78-2.47-1.55-2.47c-2.87,0-8.43,4.19-8.43,4.19Z"/><path class="cls-17" d="M139.26,86a48.62,48.62,0,0,0-7.86-1.89,6.21,6.21,0,0,1,.74-2.48c.9-1,7.76,2.19,7.76,2.19Z"/><path class="cls-15" d="M127.48,100.72a3.6,3.6,0,0,1-2.4-1.92.45.45,0,1,1,.79-.45,2.38,2.38,0,0,0,2.51,1.47,1.81,1.81,0,0,0,1.37-1.73c.22-3.6-2-9.26-2.07-9.32a.45.45,0,0,1,.84-.34c.1.24,2.37,5.91,2.13,9.72a2.73,2.73,0,0,1-2.07,2.55A2.66,2.66,0,0,1,127.48,100.72Z"/><path class="cls-16" d="M109,91.15s-5.58-3.06-7.37,2c-1.57,4.47,3.51,12.93,10.31,10.16Z"/><path class="cls-17" d="M134,107.62a5.84,5.84,0,0,1-1.08,1.64,6,6,0,0,1-4.62,1.74,5.9,5.9,0,0,1-4.4-2.27,12.62,12.62,0,0,1-1.68-2.54,13,13,0,0,1-.71-1.62s8.91-.28,13.18-.91h0a9,9,0,0,1-.09,1.75A8.19,8.19,0,0,1,134,107.62Z"/><path class="cls-1" d="M134.62,105.42c-4.07.79-10.65.73-12.39.77a13,13,0,0,1-.71-1.62s8.91-.28,13.18-.91h0A9,9,0,0,1,134.62,105.42Z"/><path class="cls-15" d="M109.61,100.47a9.56,9.56,0,0,0-5.51-6.68s4.26,4,3.92,6.73Z"/><path class="cls-8" d="M132.92,109.26a6,6,0,0,1-4.62,1.74,5.9,5.9,0,0,1-4.4-2.27,5.59,5.59,0,0,1,4.57-.27,3.82,3.82,0,0,1,2.28-.33A2.89,2.89,0,0,1,132.92,109.26Z"/><path class="cls-17" d="M112.38,86.23s.76,7-1.5,7.71c-3.36,1-4.49-3.66-4.49-3.66a7.89,7.89,0,0,1-3.57-7.53c.61-5.06,4.3-4.5,4.3-4.5s-3.34-2.72-.09-5c0,0-2.1-2.81,2.07-5.24s14.14-9.29,25.42-7.18c10.56,2,9.63,13.73,2.26,15.42,0,0-20-.74-24.66,2.94C112.12,79.23,114.24,81.65,112.38,86.23Z"/><path class="cls-15" d="M127.5,113.63a7.46,7.46,0,0,1-2.6-1,.45.45,0,0,1,.51-.75,6,6,0,0,0,5.88.37.45.45,0,1,1,.43.8A6.27,6.27,0,0,1,127.5,113.63Z"/><path class="cls-17" d="M142.1,88.8a52.67,52.67,0,0,1-2,13.52c-4.71-3.37-10.61-.93-10.61-.93h0a1.71,1.71,0,0,0,1.79,1.71c4.66-.2,7,.94,8,1.7-1.93,5-5.08,9.27-10.19,9.5s-8.85-3.32-11.54-7.59c.83-.74,3.41-2.63,8.56-3.3a2,2,0,0,0,1.78-2h0s-7.13-2.16-12.09,2.15A51.72,51.72,0,0,1,112,92.71l-3.23,1.08s1.25,8.28,2.62,13.55c2.09,8,8.59,13.37,17.06,12.75S144.51,109.55,142.1,88.8Z"/><path class="cls-5" d="M99.21,129.19s-12.47,23.34-17.54,42.35a9.31,9.31,0,0,0,5.91,11.2c6.51,2.27,17.29,2.73,28.5,2.72v-7.32s-12.6.08-21.46-7.12L101,155S104.09,140.18,99.21,129.19Z"/><path class="cls-5" d="M148.91,127.33s14.18-5.19,25.85-8.1a22,22,0,0,1,1,12.1s-5.94,5.5-25.89,11.24A41.75,41.75,0,0,1,148.91,127.33Z"/><path class="cls-5" d="M175.78,131.33s12.74-7.94,20.74-41.4l-6.71-2.44a124.25,124.25,0,0,1-7.18,15.14c-3.45,6-7.87,16.6-7.87,16.6S171.61,130.51,175.78,131.33Z"/><path class="cls-16" d="M202.44,80.21a3.28,3.28,0,0,1-2,3.23,1.47,1.47,0,0,1-.36.06s0,.16-.07.44c-.22,1.19-1,4.5-3.47,6l-6.71-2.44a9.79,9.79,0,0,1-2-3.93c-.46-2.21,1-5.2,1.75-6.23s3.25-.41,3.25-.41,1.6-5.87,3.71-7.16.88,4.07-.72,7.47a1.84,1.84,0,0,1,2.16-.77C199.45,76.92,202.39,78.36,202.44,80.21Z"/><path class="cls-15" d="M190,83a.28.28,0,0,1-.19-.5,3.17,3.17,0,0,0,.94-2.09.28.28,0,0,1,.39-.26s1.83.69,2.87.06a1.41,1.41,0,0,0,.47-1.75.28.28,0,0,1,.53-.22,2,2,0,0,1-.7,2.45,4,4,0,0,1-3,.11,3.76,3.76,0,0,1-1.11,2.13A.28.28,0,0,1,190,83Z"/><path class="cls-15" d="M200.43,83.45a1.47,1.47,0,0,1-.36.06s0,.16-.07.44a8.62,8.62,0,0,1-3.59-1.62L196,82a9.69,9.69,0,0,1-1.41-1.47l-.21-.29a.28.28,0,0,1,.48-.31l.11.15A8.83,8.83,0,0,0,200.43,83.45Z"/><path class="cls-15" d="M195.31,87.1a.28.28,0,0,1-.28-.21c-.64-2.47,1-5,1.06-5.14a.28.28,0,0,1,.48.31s-1.56,2.47-1,4.69a.28.28,0,0,1-.2.35Z"/><circle class="cls-18" cx="121.52" cy="91.24" r="5.64"/><circle class="cls-19" cx="136.55" cy="91.24" r="5.64"/><path class="cls-17" d="M136.55,84.87a6.38,6.38,0,0,0-6.32,5.59,4.28,4.28,0,0,0-2.37.09,6.37,6.37,0,0,0-12.58-.6,12.55,12.55,0,0,0-4.9.83l.4.91a11.79,11.79,0,0,1,4.38-.75c0,.1,0,.19,0,.29a6.37,6.37,0,0,0,12.73.34,3.2,3.2,0,0,1,2.29-.06,6.37,6.37,0,1,0,6.37-6.65Zm-15,11.75a5.38,5.38,0,1,1,5.38-5.38A5.38,5.38,0,0,1,121.52,96.62Zm15,0a5.38,5.38,0,1,1,5.38-5.38A5.38,5.38,0,0,1,136.55,96.62Z"/><path class="cls-20" d="M0,184.67H257.9a0,0,0,0,1,0,0v1.5a7,7,0,0,1-7,7H7a7,7,0,0,1-7-7v-1.5a0,0,0,0,1,0,0Z"/><ellipse class="cls-12" cx="129.53" cy="187.64" rx="120.75" ry="2.24"/><rect class="cls-12" x="20.68" y="193.15" width="216.54" height="70.68"/><rect class="cls-21" x="20.65" y="193.15" width="216.57" height="8.24"/><rect class="cls-1" x="10.81" y="172.72" width="21.82" height="3.14"/><path class="cls-1" d="M32.93,185c-2.2,2.65-8.55,2.69-10.57,2.63h0l-.63,0s-8.57.56-11.21-2.61c-1.49-1.8-.66-4.5.35-6.5.24-.48.49-.91.72-1.29.5-.83.91-1.36.91-1.36H30.95a18.12,18.12,0,0,1,1.63,2.64C33.58,180.49,34.42,183.19,32.93,185Z"/><path class="cls-13" d="M14.67,182.57c-.92,2.92,2.53,5.14,7.06,5,0,0-8.57.56-11.21-2.61-1.49-1.8-.66-4.5.35-6.5l.07-.14.07-.14c.19-.37.39-.7.57-1,.5-.83.91-1.36.91-1.36H30.95a18.12,18.12,0,0,1,1.63,2.64H24.32a16.08,16.08,0,0,0-6,1.15C16.66,180.3,15.08,181.26,14.67,182.57Z"/><path class="cls-10" d="M29.41,169.91c-.25.38-.5.73-.74,1.05-.75,1-1.36,1.7-1.4,1.76H16.17c0-.06-.65-.74-1.4-1.76-.24-.32-.49-.67-.74-1.05-1.36-2-2.8-4.77-2.4-6.85a3.17,3.17,0,0,1,.54-1.38,1.44,1.44,0,0,1,.39-.35c1.2-.7,3,.93,3.61.88.78-.07-.49-4-2.31-6.75-1.7-2.59-2.8-6.06-.72-7.31l.24-.12.24-.1c2.7-1,3.62,2.63,4.76,2.13S16.07,138,21.46,138H22c5.39,0,2,11.6,3.08,12.09s2.06-3.13,4.76-2.13l.24.1.24.12c2.08,1.25,1,4.71-.72,7.31-1.82,2.77-3.09,6.68-2.31,6.75.58.05,2.41-1.58,3.61-.88a1.44,1.44,0,0,1,.39.35,3.17,3.17,0,0,1,.54,1.38C32.21,165.14,30.77,167.88,29.41,169.91Z"/><path class="cls-11" d="M22,138v34.76h-.52V138H22Z"/><path class="cls-11" d="M21.92,157.87l-.2.17-.2.17-.06-.07-8.53-9.86.22-.15.24-.12,8.08,9.33.26.3Z"/><path class="cls-11" d="M21.92,172.12l-.2.17-.2.17-.06-.07-9.29-10.72a1.4,1.4,0,0,1,.39-.35l8.89,10.27.26.3Z"/><path class="cls-11" d="M30.52,148.29,22,158.14l-.06.08-.2-.17-.2-.17.2-.23.26-.3L30.06,148l.24.12Z"/><path class="cls-11" d="M31.27,161.67,22,172.39l-.06.08-.2-.17-.2-.17.2-.23.26-.3,8.89-10.27A1.4,1.4,0,0,1,31.27,161.67Z"/><path class="cls-3" d="M28.67,171c-.75,1-1.36,1.7-1.4,1.76H16.17c0-.06-.65-.74-1.4-1.76Z"/><path class="cls-4" d="M77.4,162.43v8.27H39.93a2.13,2.13,0,0,1-2.13-2.13v-4a2.13,2.13,0,0,1,2.13-2.13Z"/><path class="cls-1" d="M77.4,163.48v6.18h-34a2,2,0,0,1-2-2v-2.23a2,2,0,0,1,2-2Z"/><rect class="cls-22" x="44.88" y="164.73" width="32.52" height="0.55"/><rect class="cls-22" x="44.88" y="166.29" width="32.52" height="0.55"/><rect class="cls-22" x="44.88" y="167.85" width="32.52" height="0.54"/><path class="cls-6" d="M77.4,170.7V179H39.93a2.13,2.13,0,0,1-2.13-2.13v-4a2.13,2.13,0,0,1,2.13-2.13Z"/><path class="cls-1" d="M77.4,171.74v6.18h-34a2,2,0,0,1-2-2v-2.23a2,2,0,0,1,2-2Z"/><rect class="cls-22" x="44.88" y="173" width="32.52" height="0.54"/><rect class="cls-22" x="44.88" y="174.56" width="32.52" height="0.54"/><rect class="cls-22" x="44.88" y="176.12" width="32.52" height="0.55"/><path class="cls-8" d="M77.4,179v8.27H39.93a2.13,2.13,0,0,1-2.13-2.13v-4A2.13,2.13,0,0,1,39.93,179Z"/><path class="cls-1" d="M77.4,180v6.18h-34a2,2,0,0,1-2-2V182a2,2,0,0,1,2-2Z"/><rect class="cls-22" x="44.88" y="181.27" width="32.52" height="0.55"/><rect class="cls-22" x="44.88" y="182.83" width="32.52" height="0.55"/><rect class="cls-22" x="44.88" y="184.39" width="32.52" height="0.54"/><polygon class="cls-23" points="80.86 129.78 63.59 78.67 184.49 78.67 167.22 129.78 80.86 129.78"/><path class="cls-13" d="M167.19,130.41l-.15,1.27L162.53,170a4.55,4.55,0,0,1-4.52,4H90.07a4.55,4.55,0,0,1-4.52-4L81,131.68l-.15-1.27a4.55,4.55,0,0,1,4.52-5.08h77.25A4.55,4.55,0,0,1,167.19,130.41Z"/><path class="cls-1" d="M167,131.68,162.53,170a4.55,4.55,0,0,1-4.52,4H90.07a4.55,4.55,0,0,1-4.52-4L81,131.68a4.55,4.55,0,0,1,4.37-3.27h77.25A4.55,4.55,0,0,1,167,131.68Z"/><rect class="cls-24" x="89.74" y="163.94" width="9.2" height="9.75" transform="translate(-12.17 7.4) rotate(-4.22)"/><rect class="cls-6" x="89.14" y="163.96" width="9.2" height="9.2" transform="translate(-12.15 7.36) rotate(-4.22)"/><rect class="cls-1" x="92.58" y="161.74" width="1.54" height="3.13" transform="translate(-11.77 7.32) rotate(-4.22)"/><rect class="cls-24" x="101.9" y="161.39" width="9.75" height="9.2" transform="translate(-79.54 231.11) rotate(-76.52)"/><rect class="cls-8" x="101.68" y="160.97" width="9.2" height="9.2" transform="translate(-79.5 230.31) rotate(-76.52)"/><rect class="cls-1" x="106.74" y="158.88" width="1.54" height="3.13" transform="translate(40.36 -20.64) rotate(13.48)"/><circle class="cls-14" cx="125.13" cy="151.2" r="4.21"/><rect class="cls-13" x="111.34" y="173.98" width="25.61" height="9.68"/><rect class="cls-22" x="111.34" y="173.98" width="25.61" height="4.84"/><path class="cls-1" d="M100.7,183.66h46.89a3.29,3.29,0,0,1,3.29,3.29v.71a0,0,0,0,1,0,0H97.41a0,0,0,0,1,0,0v-.71A3.29,3.29,0,0,1,100.7,183.66Z"/><rect class="cls-6" x="180.29" y="158.52" width="3.62" height="27.29" transform="translate(-8.35 9.28) rotate(-2.86)"/><polygon class="cls-16" points="183.23 158.45 179.62 158.63 180.68 155.99 181.23 154.63 181.91 155.93 183.23 158.45"/><rect class="cls-25" x="180.92" y="183.81" width="3.62" height="1.98" transform="translate(-8.98 9.33) rotate(-2.86)"/><path class="cls-8" d="M181,185.79h3.62a0,0,0,0,1,0,0v.38a1.2,1.2,0,0,1-1.2,1.2h-1.22a1.2,1.2,0,0,1-1.2-1.2v-.38A0,0,0,0,1,181,185.79Z" transform="translate(-9.07 9.34) rotate(-2.86)"/><polygon class="cls-14" points="181.91 155.93 180.68 155.99 181.23 154.63 181.91 155.93"/><rect class="cls-7" x="180.84" y="182.39" width="3.62" height="1.42" transform="translate(-8.89 9.32) rotate(-2.85)"/><path class="cls-7" d="M180.58,159.93l1,20.18a.28.28,0,0,0,.29.26h0a.28.28,0,0,0,.26-.29l-1-20.18a.28.28,0,0,0-.29-.26h0A.28.28,0,0,0,180.58,159.93Z"/><path class="cls-7" d="M182,159.85,183,180a.28.28,0,0,0,.29.26h0a.28.28,0,0,0,.26-.29l-1-20.18a.28.28,0,0,0-.29-.26h0A.28.28,0,0,0,182,159.85Z"/><rect class="cls-10" x="192.14" y="159.15" width="3.62" height="27.29" transform="translate(15.26 -15.73) rotate(4.84)"/><polygon class="cls-16" points="196.9 159.35 193.29 159.04 194.7 156.57 195.43 155.29 195.93 156.68 196.9 159.35"/><rect class="cls-25" x="191.07" y="184.41" width="3.62" height="1.98" transform="translate(16.31 -15.6) rotate(4.84)"/><path class="cls-8" d="M190.92,186.39h3.62a0,0,0,0,1,0,0v.38a1.2,1.2,0,0,1-1.2,1.2h-1.22a1.2,1.2,0,0,1-1.2-1.2v-.38A0,0,0,0,1,190.92,186.39Z" transform="translate(16.46 -15.58) rotate(4.83)"/><polygon class="cls-14" points="195.93 156.68 194.7 156.57 195.43 155.29 195.93 156.68"/><rect class="cls-11" x="192.31" y="181.89" width="1.42" height="3.62" transform="translate(-6.3 360.55) rotate(-85.16)"/><path class="cls-11" d="M194.08,160.46l-1.7,20.14a.28.28,0,0,0,.25.3h0a.28.28,0,0,0,.3-.25l1.7-20.14a.28.28,0,0,0-.25-.3h0A.28.28,0,0,0,194.08,160.46Z"/><path class="cls-11" d="M195.49,160.58l-1.7,20.14a.28.28,0,0,0,.25.3h0a.28.28,0,0,0,.3-.25l1.7-20.14a.28.28,0,0,0-.25-.3h0A.28.28,0,0,0,195.49,160.58Z"/><rect class="cls-4" x="184.31" y="158.08" width="3.62" height="27.29" transform="translate(-0.55 0.6) rotate(-0.19)"/><polygon class="cls-16" points="187.89 158.07 184.27 158.09 185.45 155.5 186.07 154.16 186.69 155.5 187.89 158.07"/><rect class="cls-25" x="184.35" y="183.38" width="3.62" height="1.98" transform="translate(-0.6 0.6) rotate(-0.19)"/><path class="cls-8" d="M184.36,185.37H188a0,0,0,0,1,0,0v.38a1.2,1.2,0,0,1-1.2,1.2h-1.22a1.2,1.2,0,0,1-1.2-1.2v-.38A0,0,0,0,1,184.36,185.37Z" transform="translate(-0.61 0.61) rotate(-0.19)"/><polygon class="cls-14" points="186.69 155.5 185.45 155.5 186.07 154.16 186.69 155.5"/><rect class="cls-5" x="184.35" y="181.96" width="3.62" height="1.42" transform="translate(-0.59 0.61) rotate(-0.19)"/><path class="cls-5" d="M185.17,159.43l.07,20.21a.28.28,0,0,0,.28.28h0a.28.28,0,0,0,.28-.28l-.07-20.21a.28.28,0,0,0-.28-.28h0A.28.28,0,0,0,185.17,159.43Z"/><path class="cls-5" d="M186.59,159.42l.07,20.21a.28.28,0,0,0,.28.28h0a.28.28,0,0,0,.28-.28l-.07-20.21a.28.28,0,0,0-.28-.28h0A.28.28,0,0,0,186.59,159.42Z"/><rect class="cls-8" x="188.33" y="157.9" width="3.62" height="27.29" transform="translate(11.23 -11.68) rotate(3.63)"/><polygon class="cls-16" points="192.81 158.04 189.19 157.82 190.55 155.31 191.25 154.02 191.78 155.39 192.81 158.04"/><rect class="cls-25" x="187.53" y="183.18" width="3.62" height="1.98" transform="translate(12.03 -11.61) rotate(3.63)"/><path class="cls-8" d="M187.41,185.16H191a0,0,0,0,1,0,0v.38a1.2,1.2,0,0,1-1.2,1.2h-1.22a1.2,1.2,0,0,1-1.2-1.2v-.38A0,0,0,0,1,187.41,185.16Z" transform="translate(12.14 -11.6) rotate(3.63)"/><polygon class="cls-14" points="191.78 155.39 190.55 155.31 191.25 154.02 191.78 155.39"/><rect class="cls-9" x="188.73" y="180.66" width="1.42" height="3.62" transform="translate(-4.65 359.99) rotate(-86.37)"/><path class="cls-9" d="M190,159.21l-1.28,20.17a.28.28,0,0,0,.26.29h0a.28.28,0,0,0,.29-.26l1.28-20.17a.28.28,0,0,0-.26-.29h0A.28.28,0,0,0,190,159.21Z"/><path class="cls-9" d="M191.42,159.3l-1.28,20.17a.28.28,0,0,0,.26.29h0a.28.28,0,0,0,.29-.26L192,159.34a.28.28,0,0,0-.26-.29h0A.28.28,0,0,0,191.42,159.3Z"/><path class="cls-1" d="M197.67,167.54l-.19,1.46-.17,1.33-.12.92-.14,1.1-.17,1.31-.11.83-.16,1.21-.17,1.3-.26,2.05-.16,1.28-.27,2.07-.16,1.26-.27,2.09-.16,1.25-.14,1.08a46,46,0,0,1-14.22,0l-.14-1.08-.16-1.25-.27-2.09-.16-1.26-.27-2.07-.17-1.28-.26-2.05-.17-1.3-.16-1.21-.11-.83-.17-1.31-.14-1.1-.12-.92-.17-1.33-.19-1.46Z"/><rect class="cls-1" x="175.89" y="167.54" width="23.77" height="3.71" rx="1.53" ry="1.53"/><polygon class="cls-13" points="197.19 171.25 197.05 172.35 196.88 173.66 196.77 174.49 179.04 174.49 178.93 173.66 178.76 172.35 178.62 171.25 197.19 171.25"/><path class="cls-1" d="M210.46,110.23a2.18,2.18,0,0,0,3,.64l3.33-2.16,3.76-2.44,15.89,13-10.14,55.39-.63,3.43-.73,4a2.18,2.18,0,0,0,1.75,2.54,2.28,2.28,0,0,0,.4,0,2.18,2.18,0,0,0,2.14-1.79l.88-4.79.63-3.43L241,118.76a2.18,2.18,0,0,0-.77-2.08l-18.12-14.79a2.18,2.18,0,0,0-2.56-.14l-5.72,3.71-2.7,1.75A2.18,2.18,0,0,0,210.46,110.23Z"/><path class="cls-13" d="M210.46,110.23a2.18,2.18,0,0,0,3,.64l3.33-2.16c-.3-1.71-2-2.75-3-3.25l-2.7,1.75A2.18,2.18,0,0,0,210.46,110.23Z"/><path class="cls-1" d="M193.28,117h0a7.4,7.4,0,0,0-1.36,1,7.24,7.24,0,1,0,9.88,10.59q.21-.19.4-.41A7.24,7.24,0,0,0,193.28,117Z"/><path class="cls-13" d="M193.28,117h0a7.4,7.4,0,0,0-1.36,1,7.26,7.26,0,0,0-1.23,1.5h0l9.55,10.2a7.27,7.27,0,0,0,1.56-1.11q.21-.19.4-.41C200.07,124.73,196.22,118.87,193.28,117Z"/><ellipse class="cls-14" cx="211.33" cy="109.82" rx="2.74" ry="4.33" transform="translate(-18.09 173.75) rotate(-43.03)"/><ellipse class="cls-7" cx="211.33" cy="109.82" rx="2.74" ry="4.33" transform="translate(-18.09 173.75) rotate(-43.03)"/><path class="cls-6" d="M186.22,108.06a2.77,2.77,0,0,0-.14,3.92l20.16,21.6h0l0,0,0,0,.11.12,1,1.1a2.77,2.77,0,0,0,3.92.13,17.13,17.13,0,0,0,.83-24.24l-1.74-1.86a17.3,17.3,0,0,0-3.43-2.84l-.09-.05A17.15,17.15,0,0,0,186.22,108.06Z"/><path class="cls-14" d="M186.22,108.06a2.77,2.77,0,0,0-.14,3.92l20.16,21.6c-.55-.72-13.67-18.05-9.84-24.74,3.65-6.37,9.72-3.28,10.52-2.84A17.15,17.15,0,0,0,186.22,108.06Z"/><path class="cls-7" d="M186.22,108.06a2.77,2.77,0,0,0-.14,3.92l20.16,21.6c-.55-.72-13.67-18.05-9.84-24.74,3.65-6.37,9.72-3.28,10.52-2.84A17.15,17.15,0,0,0,186.22,108.06Z"/><path class="cls-6" d="M213.61,182.85v4.79h28v-4.79a4.79,4.79,0,0,0-4.79-4.79H218.4A4.79,4.79,0,0,0,213.61,182.85Z"/><rect class="cls-7" x="213.61" y="183.51" width="28.02" height="4.13"/><polygon class="cls-26" points="206.25 133.58 189.61 175.33 147.62 134.38 186.09 111.98 206.25 133.58"/><polygon class="cls-13" points="225.69 178.07 230.12 178.07 230.75 174.63 226.32 174.63 225.69 178.07"/><path class="cls-1" d="M218.23,158.34c-4.37.49-4.77.89-5.26,5.26-.49-4.37-.89-4.77-5.26-5.26,4.37-.49,4.77-.89,5.26-5.26C213.47,157.45,213.86,157.85,218.23,158.34Z"/><path class="cls-1" d="M60.66,127.16c-4.37.49-4.77.89-5.26,5.26-.49-4.37-.89-4.77-5.26-5.26,4.37-.49,4.77-.89,5.26-5.26C55.9,126.27,56.3,126.66,60.66,127.16Z"/><path class="cls-1" d="M170.73,85.34c-4.37.49-4.77.89-5.26,5.26-.49-4.37-.89-4.77-5.26-5.26,4.37-.49,4.77-.89,5.26-5.26C166,84.45,166.36,84.85,170.73,85.34Z"/><path class="cls-1" d="M91.68,63.37c-4.37.49-4.77.89-5.26,5.26-.49-4.37-.89-4.77-5.26-5.26,4.37-.49,4.77-.89,5.26-5.26C86.92,62.48,87.32,62.88,91.68,63.37Z"/></g></g></svg>