<svg xmlns="http://www.w3.org/2000/svg" xmlns:xlink="http://www.w3.org/1999/xlink" viewBox="0 0 419.15 487.01"><defs><style>.cls-1{fill:url(#Degradado_sin_nombre_2);}</style><linearGradient id="Degradado_sin_nombre_2" x1="70.7" y1="123.46" x2="431.87" y2="336.18" gradientUnits="userSpaceOnUse"><stop offset="0" stop-color="#fff"/><stop offset="1" stop-color="#dbe2e8"/></linearGradient></defs><title>серая фигура</title><g id="Слой_2" data-name="Слой 2"><g id="OBJECTS"><path class="cls-1" d="M413.43,446.73c-22.23,54.18-67.64,45.51-88.18,21.52-29.1-34-17.66-55.68-84.52-34.69C191.4,449,140,419.77,148.82,363.44c12.26-78.74-58.59-42.72-95.66-52.77C-23.43,289.9-2.63,237.14,25.37,147.14c28.75-92.41,85.29-132.5,169-144.23,61.78-8.66,115.82.45,131.18,49.15,22,69.94-51.77,93.4,10.55,112.23,37.3,11.27,89.72,52.86,42.14,119.43S445.44,368.71,413.43,446.73Z"/></g></g></svg>