<svg xmlns="http://www.w3.org/2000/svg" viewBox="0 0 418.32 338.78"><defs><style>.cls-1{fill:#f4f4f4;}</style></defs><title>3</title><g id="Слой_2" data-name="Слой 2"><g id="Objects"><path class="cls-1" d="M28.78,9c-42.64,23.69-31,60.4-9.17,75,31,20.74,47.78,9.16,37,66.51-3.67,19.47.23,41.11,14.09,55.89,10,10.63,24.69,16.89,39.22,15.81,8.09-.6,15.85-3.34,23.84-4.73s16.79-1.25,23.47,3.34c6.44,4.42,9.75,12.18,11.46,19.79,4.12,18.32.58,37.84,6.37,55.85,4.88,15.18,16.23,30.44,30.83,37.33,19.11,9,41.66,4,60.9-1.93a190.31,190.31,0,0,0,62-33.4c23.6-18.87,43-42.68,58.49-68.63,13.78-23.11,24.63-48.26,29-74.8,7-42-2.61-102.55-52.46-112C303.83,31.67,296,90.67,274.3,41c-13-29.75-56.83-64.67-107.23-18.8S90.18-25.13,28.78,9Z"/></g></g></svg>