<svg xmlns="http://www.w3.org/2000/svg" xmlns:xlink="http://www.w3.org/1999/xlink" viewBox="0 0 340.19 371.35"><defs><style>.cls-1{fill:url(#Безымянный_градиент_18);}.cls-2{clip-path:url(#clip-path);}.cls-3{fill:url(#Безымянный_градиент_18-3);}.cls-4{fill:url(#Безымянный_градиент_18-4);}</style><linearGradient id="Безымянный_градиент_18" x1="251.87" y1="-52.46" x2="202.62" y2="50.63" gradientUnits="userSpaceOnUse"><stop offset="0" stop-color="#e9a854"/><stop offset="1" stop-color="#e84e4e"/></linearGradient><clipPath id="clip-path"><path class="cls-1" d="M19.21,64c-24.62,28.34-6.57,51.84,13.09,56.69,27.85,6.86,37-5.93,44.22,38.4,2.46,15,11,29.68,24.88,36.73,10,5.07,22.29,5.73,32.52,1.13,5.69-2.56,10.59-6.58,16-9.68s11.82-5.31,17.86-3.75c5.82,1.51,10.25,6.25,13.49,11.31,7.79,12.17,10.36,27.22,19.28,38.72,7.51,9.7,19.74,17.75,32.11,18.91,16.19,1.51,31.2-8,43.55-17.4a146.43,146.43,0,0,0,36.08-40.45c12.12-19.85,19.9-42.17,24.28-65,3.9-20.33,5.14-41.38,1.35-61.74-6-32.19-28.83-73.49-67.37-67.24-46.4,7.53-38.56,56.56-67.3,26.3C186,8.82,147.1-9.21,122.7,37.22S54.66,23.21,19.21,64Z"/></clipPath><linearGradient id="Безымянный_градиент_18-3" x1="208.19" y1="51" x2="166.74" y2="131.6" gradientTransform="matrix(1, -0.08, 0.08, 1, -12.28, 31.19)" xlink:href="#Безымянный_градиент_18"/><linearGradient id="Безымянный_градиент_18-4" x1="178.81" y1="66.53" x2="129.29" y2="170.16" gradientTransform="matrix(1, -0.08, 0.08, 1, -12.28, 31.19)" xlink:href="#Безымянный_градиент_18"/></defs><title>2</title><g id="Слой_2" data-name="Слой 2"><g id="Objects"><path class="cls-1" d="M19.21,64c-24.62,28.34-6.57,51.84,13.09,56.69,27.85,6.86,37-5.93,44.22,38.4,2.46,15,11,29.68,24.88,36.73,10,5.07,22.29,5.73,32.52,1.13,5.69-2.56,10.59-6.58,16-9.68s11.82-5.31,17.86-3.75c5.82,1.51,10.25,6.25,13.49,11.31,7.79,12.17,10.36,27.22,19.28,38.72,7.51,9.7,19.74,17.75,32.11,18.91,16.19,1.51,31.2-8,43.55-17.4a146.43,146.43,0,0,0,36.08-40.45c12.12-19.85,19.9-42.17,24.28-65,3.9-20.33,5.14-41.38,1.35-61.74-6-32.19-28.83-73.49-67.37-67.24-46.4,7.53-38.56,56.56-67.3,26.3C186,8.82,147.1-9.21,122.7,37.22S54.66,23.21,19.21,64Z"/><g class="cls-2"><path class="cls-3" d="M22.27,106.08C20.35,71.26,47,64.29,64.16,71.93c24.34,10.82,23.75,25.41,54.32-3,10.38-9.64,25-15.53,39.18-12.78,10.23,2,19.62,8.49,24.51,17.7,2.72,5.12,4,10.86,6.23,16.22s5.64,10.63,11,12.92c5.13,2.21,11.08,1.25,16.34-.61,12.65-4.49,23.11-14.07,36.2-17.43,11-2.83,24.6-1.79,34.33,4.41,12.74,8.12,18.33,23.66,22,37.57a136,136,0,0,1,3.43,50.23c-2.42,21.47-9.42,42.28-19.22,61.54-8.72,17.14-19.8,33.29-34.17,46.07-22.73,20.21-63,37.51-87.74,11-29.76-32,3.92-63.47-34.41-57.63-22.94,3.49-61.77-5.45-53.23-53.42S25,156.22,22.27,106.08Z"/><path class="cls-4" d="M2,110c10.16-34.18,38.2-31.7,52.1-18.42,19.7,18.81,14.09,32.65,53.31,15.86,13.32-5.7,29.38-6.34,42.12,1.21,9.16,5.43,16,14.95,17.49,25.49.85,5.86.13,11.84.4,17.76s1.77,12.18,6.1,16.22c4.17,3.89,10.23,5,15.94,5,13.73,0,27.1-5.57,40.86-4.29,11.6,1.08,24.29,6.76,31.52,16.09,9.46,12.21,9.48,29.09,8.26,43.77a139.1,139.1,0,0,1-14,49.53c-9.73,19.83-23.65,37.45-39.72,52.6-14.31,13.49-30.54,25.21-48.79,32.56C138.73,375.07,94,377.82,79.35,343.75,61.72,302.73,105,284,66.11,276.41c-23.28-4.55-57.57-26.55-32.81-69.77S-12.62,159.25,2,110Z"/></g></g></g></svg>