<svg xmlns="http://www.w3.org/2000/svg" xmlns:xlink="http://www.w3.org/1999/xlink" viewBox="0 0 272.23 269.86"><defs><style>.cls-1{fill:none;}.cls-2{isolation:isolate;}.cls-3{fill:url(#Gradient_bez_nazwy_2);}.cls-4{fill:url(#Gradient_bez_nazwy_2-2);}.cls-5{fill:url(#Gradient_bez_nazwy_2-3);}.cls-6{fill:url(#Gradient_bez_nazwy_8);}.cls-7{fill:url(#Gradient_bez_nazwy_2-4);}.cls-8{fill:url(#Gradient_bez_nazwy_2-5);}.cls-9{fill:url(#Gradient_bez_nazwy_2-6);}.cls-10{fill:url(#Gradient_bez_nazwy_2-7);}.cls-11{fill:url(#Gradient_bez_nazwy_2-8);}.cls-12{fill:url(#Gradient_bez_nazwy_8-2);}.cls-13{fill:url(#Gradient_bez_nazwy_8-3);}.cls-14{fill:url(#Gradient_bez_nazwy_8-4);}.cls-15{fill:url(#Gradient_bez_nazwy_8-5);}.cls-16{fill:url(#Gradient_bez_nazwy_8-6);}.cls-17{fill:url(#Gradient_bez_nazwy_12);}.cls-18{fill:url(#Gradient_bez_nazwy_8-7);}.cls-19{fill:url(#Gradient_bez_nazwy_12-2);}.cls-20{fill:url(#Gradient_bez_nazwy_8-8);}.cls-21{fill:url(#Gradient_bez_nazwy_12-3);}.cls-22{fill:url(#Gradient_bez_nazwy_8-9);}.cls-23{fill:url(#Gradient_bez_nazwy_12-4);}.cls-24{fill:url(#Gradient_bez_nazwy_8-10);}.cls-25{fill:url(#Gradient_bez_nazwy_8-11);}.cls-26{fill:url(#Gradient_bez_nazwy_8-12);}.cls-27{fill:url(#Gradient_bez_nazwy_8-13);}.cls-28{fill:url(#Gradient_bez_nazwy_5);}.cls-29{fill:url(#Gradient_bez_nazwy_5-2);}.cls-106,.cls-30,.cls-74,.cls-90{opacity:0.3;}.cls-30{mix-blend-mode:exclusion;fill:url(#Gradient_bez_nazwy_5-3);}.cls-31{fill:url(#Gradient_bez_nazwy_11);}.cls-32{fill:#46cccc;opacity:0.4;}.cls-33,.cls-37,.cls-50{fill:#7bcaff;}.cls-33,.cls-49,.cls-56,.cls-57{opacity:0.6;}.cls-34{fill:#3a7bd8;}.cls-35{fill:#eff4f4;}.cls-36{fill:#a9c3ea;}.cls-37{opacity:0.5;}.cls-38{fill:url(#Gradient_bez_nazwy_3);}.cls-39{fill:#edf4fc;}.cls-40{fill:#baf4d5;}.cls-41{fill:#d1d9fe;}.cls-42{fill:#a6edc8;}.cls-43{fill:#ffc550;}.cls-44{fill:#d3d3d3;}.cls-45{fill:#f2f2f2;}.cls-46{fill:#f9f4ea;}.cls-47{fill:#bbceff;}.cls-48{fill:#f6f3ff;}.cls-51{fill:url(#Gradient_bez_nazwy_3-2);}.cls-52{fill:url(#Gradient_bez_nazwy_3-3);}.cls-53{fill:url(#Gradient_bez_nazwy_3-4);}.cls-54{fill:url(#Gradient_bez_nazwy_3-5);}.cls-55{fill:url(#Gradient_bez_nazwy_3-6);}.cls-56{fill:url(#Gradient_bez_nazwy_3-7);}.cls-57{fill:url(#Gradient_bez_nazwy_3-8);}.cls-58,.cls-75{fill:#d8d8d8;}.cls-106,.cls-58,.cls-74,.cls-90{mix-blend-mode:multiply;}.cls-59{fill:url(#Gradient_bez_nazwy_8-14);}.cls-60{fill:url(#Gradient_bez_nazwy_8-15);}.cls-61{fill:#4e11f4;}.cls-62{fill:#ffaf84;}.cls-63{fill:url(#Gradient_bez_nazwy_8-16);}.cls-64{fill:url(#Gradient_bez_nazwy_8-17);}.cls-65{fill:url(#Gradient_bez_nazwy_4);}.cls-66{fill:url(#Gradient_bez_nazwy_4-2);}.cls-67{fill:url(#Gradient_bez_nazwy_4-3);}.cls-68{fill:url(#Gradient_bez_nazwy_4-4);}.cls-69{fill:url(#Gradient_bez_nazwy_4-5);}.cls-70{fill:url(#Gradient_bez_nazwy_8-18);}.cls-71{fill:url(#Gradient_bez_nazwy_4-6);}.cls-72{fill:url(#Gradient_bez_nazwy_4-7);}.cls-73{clip-path:url(#clip-path);}.cls-74{fill:url(#Gradient_bez_nazwy_4-8);}.cls-76{fill:url(#Gradient_bez_nazwy_10);}.cls-77{fill:url(#Gradient_bez_nazwy_10-2);}.cls-78{fill:#541968;}.cls-79{fill:url(#Gradient_bez_nazwy_10-3);}.cls-80{fill:url(#Gradient_bez_nazwy_8-19);}.cls-81{fill:url(#Gradient_bez_nazwy_8-20);}.cls-82{fill:url(#Gradient_bez_nazwy_8-21);}.cls-83{fill:url(#Gradient_bez_nazwy_8-22);}.cls-84{fill:url(#Gradient_bez_nazwy_8-23);}.cls-85{fill:url(#Gradient_bez_nazwy_7);}.cls-86{fill:url(#Gradient_bez_nazwy_10-4);}.cls-87{fill:url(#Gradient_bez_nazwy_10-5);}.cls-88{fill:url(#Gradient_bez_nazwy_7-2);}.cls-89{clip-path:url(#clip-path-2);}.cls-90{fill:url(#Gradient_bez_nazwy_4-9);}.cls-91{fill:url(#Gradient_bez_nazwy_5-4);}.cls-92{fill:url(#Gradient_bez_nazwy_8-24);}.cls-93{fill:url(#Gradient_bez_nazwy_7-3);}.cls-94{fill:#ed9169;}.cls-95{fill:url(#Gradient_bez_nazwy_8-25);}.cls-96{fill:url(#Gradient_bez_nazwy_9);}.cls-97{fill:url(#Gradient_bez_nazwy_9-2);}.cls-98{fill:url(#Gradient_bez_nazwy_9-3);}.cls-99{fill:url(#Gradient_bez_nazwy_9-4);}.cls-100{fill:url(#Gradient_bez_nazwy_9-5);}.cls-101{fill:url(#Gradient_bez_nazwy_8-26);}.cls-102{fill:url(#Gradient_bez_nazwy_7-4);}.cls-103{fill:url(#Gradient_bez_nazwy_5-5);}.cls-104{fill:url(#Gradient_bez_nazwy_5-6);}.cls-105{clip-path:url(#clip-path-3);}.cls-106{fill:url(#Gradient_bez_nazwy_4-10);}.cls-107{fill:url(#Gradient_bez_nazwy_2-9);}</style><linearGradient id="Gradient_bez_nazwy_2" x1="127.57" y1="38.65" x2="152.21" y2="18.13" gradientTransform="translate(-4.47 18.03) rotate(-7.53)" gradientUnits="userSpaceOnUse"><stop offset="0" stop-color="#f70f47"/><stop offset="1" stop-color="#ffb41d"/></linearGradient><linearGradient id="Gradient_bez_nazwy_2-2" x1="123.78" y1="61.59" x2="113.4" y2="-0.19" xlink:href="#Gradient_bez_nazwy_2"/><linearGradient id="Gradient_bez_nazwy_2-3" x1="137.97" y1="21.44" x2="125.52" y2="40.71" xlink:href="#Gradient_bez_nazwy_2"/><linearGradient id="Gradient_bez_nazwy_8" x1="123.71" y1="79.62" x2="123.71" y2="30.67" gradientTransform="translate(-4.47 18.03) rotate(-7.53)" gradientUnits="userSpaceOnUse"><stop offset="0" stop-color="#36078b"/><stop offset="1" stop-color="#16b1ff"/></linearGradient><linearGradient id="Gradient_bez_nazwy_2-4" x1="124.9" y1="12.99" x2="112.44" y2="32.26" xlink:href="#Gradient_bez_nazwy_2"/><linearGradient id="Gradient_bez_nazwy_2-5" x1="119.16" y1="9.28" x2="106.71" y2="28.56" xlink:href="#Gradient_bez_nazwy_2"/><linearGradient id="Gradient_bez_nazwy_2-6" x1="120.4" y1="56.9" x2="141.52" y2="6.48" xlink:href="#Gradient_bez_nazwy_2"/><linearGradient id="Gradient_bez_nazwy_2-7" x1="126.09" y1="59.28" x2="147.22" y2="8.87" xlink:href="#Gradient_bez_nazwy_2"/><linearGradient id="Gradient_bez_nazwy_2-8" x1="128.04" y1="15.02" x2="115.59" y2="34.3" xlink:href="#Gradient_bez_nazwy_2"/><linearGradient id="Gradient_bez_nazwy_8-2" x1="300.44" y1="52.05" x2="308.41" y2="43.51" gradientTransform="matrix(0.91, 0.41, -0.41, 0.91, -44.15, -117.58)" xlink:href="#Gradient_bez_nazwy_8"/><linearGradient id="Gradient_bez_nazwy_8-3" x1="314.36" y1="121.6" x2="322.34" y2="113.06" gradientTransform="translate(-102.26 -84.22) rotate(2.45)" xlink:href="#Gradient_bez_nazwy_8"/><linearGradient id="Gradient_bez_nazwy_8-4" x1="295.24" y1="210.01" x2="302.45" y2="202.28" gradientTransform="translate(-150.57 -20.62) rotate(-24.19)" xlink:href="#Gradient_bez_nazwy_8"/><linearGradient id="Gradient_bez_nazwy_8-5" x1="240.32" y1="278.99" x2="246.8" y2="272.04" gradientTransform="matrix(0.64, -0.77, 0.77, 0.64, -164.21, 54.75)" xlink:href="#Gradient_bez_nazwy_8"/><linearGradient id="Gradient_bez_nazwy_8-6" x1="306.37" y1="73.81" x2="334.97" y2="43.16" gradientTransform="translate(-76.51 -101.58) rotate(12.87)" xlink:href="#Gradient_bez_nazwy_8"/><linearGradient id="Gradient_bez_nazwy_12" x1="193.91" y1="51.94" x2="231.07" y2="27.52" gradientUnits="userSpaceOnUse"><stop offset="0.48" stop-color="#36078b"/><stop offset="1" stop-color="#16b1ff"/></linearGradient><linearGradient id="Gradient_bez_nazwy_8-7" x1="-54.74" y1="-8.73" x2="-32.97" y2="-32.07" gradientTransform="matrix(-0.81, -0.59, -0.59, 0.81, 161.14, 6.36)" xlink:href="#Gradient_bez_nazwy_8"/><linearGradient id="Gradient_bez_nazwy_12-2" x1="208.91" y1="59.4" x2="202.3" y2="11.86" xlink:href="#Gradient_bez_nazwy_12"/><linearGradient id="Gradient_bez_nazwy_8-8" x1="229.8" y1="62.16" x2="269.84" y2="19.25" gradientTransform="translate(3.77 -67.44) rotate(8.49)" xlink:href="#Gradient_bez_nazwy_8"/><linearGradient id="Gradient_bez_nazwy_12-3" x1="195.71" y1="53.02" x2="254.68" y2="8.8" xlink:href="#Gradient_bez_nazwy_12"/><linearGradient id="Gradient_bez_nazwy_8-9" x1="219.25" y1="15.91" x2="248.14" y2="-15.05" gradientTransform="matrix(0.89, 0.46, -0.46, 0.89, 34.93, -73.1)" xlink:href="#Gradient_bez_nazwy_8"/><linearGradient id="Gradient_bez_nazwy_12-4" x1="199.6" y1="53.28" x2="249.52" y2="37.05" xlink:href="#Gradient_bez_nazwy_12"/><linearGradient id="Gradient_bez_nazwy_8-10" x1="235.24" y1="24.01" x2="242.45" y2="18.61" gradientTransform="matrix(1, 0, 0, 1, 0, 0)" xlink:href="#Gradient_bez_nazwy_8"/><linearGradient id="Gradient_bez_nazwy_8-11" x1="240.02" y1="17.31" x2="245.47" y2="11.92" gradientTransform="matrix(1, 0, 0, 1, 0, 0)" xlink:href="#Gradient_bez_nazwy_8"/><linearGradient id="Gradient_bez_nazwy_8-12" x1="225.61" y1="14.78" x2="228.43" y2="8.62" gradientTransform="matrix(1, 0, 0, 1, 0, 0)" xlink:href="#Gradient_bez_nazwy_8"/><linearGradient id="Gradient_bez_nazwy_8-13" x1="233.11" y1="9.38" x2="236.28" y2="5.16" gradientTransform="matrix(1, 0, 0, 1, 0, 0)" xlink:href="#Gradient_bez_nazwy_8"/><linearGradient id="Gradient_bez_nazwy_5" x1="213.26" y1="40.6" x2="213.26" y2="52.78" gradientTransform="translate(30.41 -75) rotate(24.39)" gradientUnits="userSpaceOnUse"><stop offset="0" stop-color="#2c27ce"/><stop offset="1" stop-color="#ef1d68"/></linearGradient><linearGradient id="Gradient_bez_nazwy_5-2" x1="213.26" y1="43.71" x2="213.26" y2="38.41" xlink:href="#Gradient_bez_nazwy_5"/><linearGradient id="Gradient_bez_nazwy_5-3" x1="103.2" y1="86.44" x2="249.13" y2="86.44" gradientTransform="matrix(1, 0, 0, 1, 0, 0)" xlink:href="#Gradient_bez_nazwy_5"/><linearGradient id="Gradient_bez_nazwy_11" x1="98.21" y1="87.56" x2="238.28" y2="87.56" gradientUnits="userSpaceOnUse"><stop offset="0.35" stop-color="#36078b"/><stop offset="1" stop-color="#16b1ff"/></linearGradient><linearGradient id="Gradient_bez_nazwy_3" x1="132.94" y1="71.65" x2="137.68" y2="76.26" gradientUnits="userSpaceOnUse"><stop offset="0" stop-color="#fea600"/><stop offset="1" stop-color="#ef1829"/></linearGradient><linearGradient id="Gradient_bez_nazwy_3-2" x1="173.73" y1="53.99" x2="187.38" y2="71.39" xlink:href="#Gradient_bez_nazwy_3"/><linearGradient id="Gradient_bez_nazwy_3-3" x1="177.62" y1="61.39" x2="172.96" y2="74.72" xlink:href="#Gradient_bez_nazwy_3"/><linearGradient id="Gradient_bez_nazwy_3-4" x1="151.73" y1="117.64" x2="45.48" y2="139.14" gradientTransform="translate(244.85 -99.85) rotate(74.75)" xlink:href="#Gradient_bez_nazwy_3"/><linearGradient id="Gradient_bez_nazwy_3-5" x1="152.51" y1="121.51" x2="46.26" y2="143.01" gradientTransform="translate(248.1 -95.59) rotate(74.75)" xlink:href="#Gradient_bez_nazwy_3"/><linearGradient id="Gradient_bez_nazwy_3-6" x1="205.6" y1="120.19" x2="188.06" y2="123.74" gradientTransform="translate(262.73 -100.01) rotate(74.75)" xlink:href="#Gradient_bez_nazwy_3"/><linearGradient id="Gradient_bez_nazwy_3-7" x1="147.86" y1="98.51" x2="41.61" y2="120.01" gradientTransform="translate(197.63 -56.93) rotate(74.75)" xlink:href="#Gradient_bez_nazwy_3"/><linearGradient id="Gradient_bez_nazwy_3-8" x1="146.67" y1="92.64" x2="40.42" y2="114.14" gradientTransform="translate(184.77 -47.11) rotate(74.75)" xlink:href="#Gradient_bez_nazwy_3"/><linearGradient id="Gradient_bez_nazwy_8-14" x1="201.72" y1="120.71" x2="214.92" y2="144.35" gradientTransform="matrix(0.99, 0.16, -0.16, 0.99, 25.8, -27.14)" xlink:href="#Gradient_bez_nazwy_8"/><linearGradient id="Gradient_bez_nazwy_8-15" x1="208.85" y1="116.72" x2="222.06" y2="140.36" gradientTransform="matrix(0.99, 0.16, -0.16, 0.99, 25.8, -27.14)" xlink:href="#Gradient_bez_nazwy_8"/><linearGradient id="Gradient_bez_nazwy_8-16" x1="199.67" y1="108.96" x2="199.67" y2="134.69" gradientTransform="matrix(0.99, 0.16, -0.16, 0.99, 25.8, -27.14)" xlink:href="#Gradient_bez_nazwy_8"/><linearGradient id="Gradient_bez_nazwy_8-17" x1="205.91" y1="108.96" x2="205.91" y2="134.69" gradientTransform="matrix(0.99, 0.16, -0.16, 0.99, 25.8, -27.14)" xlink:href="#Gradient_bez_nazwy_8"/><linearGradient id="Gradient_bez_nazwy_4" x1="201.83" y1="131.62" x2="211.56" y2="193.49" gradientTransform="matrix(0.99, 0.16, -0.16, 0.99, 25.8, -27.14)" gradientUnits="userSpaceOnUse"><stop offset="0" stop-color="blue"/><stop offset="1" stop-color="#9e005d"/></linearGradient><linearGradient id="Gradient_bez_nazwy_4-2" x1="214.06" y1="134.69" x2="223.41" y2="194.16" gradientTransform="translate(-36.51 41.15) rotate(-9.56)" xlink:href="#Gradient_bez_nazwy_4"/><linearGradient id="Gradient_bez_nazwy_4-3" x1="205.62" y1="131.02" x2="215.35" y2="192.9" xlink:href="#Gradient_bez_nazwy_4"/><linearGradient id="Gradient_bez_nazwy_4-4" x1="192.71" y1="133.53" x2="202.44" y2="195.41" gradientTransform="matrix(1, 0.07, -0.07, 1, 8.33, -13.04)" xlink:href="#Gradient_bez_nazwy_4"/><linearGradient id="Gradient_bez_nazwy_4-5" x1="195.78" y1="132.57" x2="205.51" y2="194.45" xlink:href="#Gradient_bez_nazwy_4"/><linearGradient id="Gradient_bez_nazwy_8-18" x1="188" y1="106.67" x2="188" y2="132.4" gradientTransform="translate(194.49 -99.33) rotate(55.25)" xlink:href="#Gradient_bez_nazwy_8"/><linearGradient id="Gradient_bez_nazwy_4-6" x1="199.56" y1="97.66" x2="210.25" y2="110.18" xlink:href="#Gradient_bez_nazwy_4"/><linearGradient id="Gradient_bez_nazwy_4-7" x1="200.48" y1="96.93" x2="211.13" y2="109.4" xlink:href="#Gradient_bez_nazwy_4"/><clipPath id="clip-path"><path class="cls-1" d="M216.55,118.83a8.43,8.43,0,0,0-1.54-.55c.06-.56.11-1.12.15-1.63a1.8,1.8,0,0,0,0-.41,3.24,3.24,0,0,0,1.31-1.55,6,6,0,0,0,.75-1.24,2.87,2.87,0,0,0,.67-.78c.47-.78.54-1.61.16-1.9.31-1.45.36-2.62-.26-3.38a1.56,1.56,0,0,0,0-.22c.11-1.41-2-2.4-2.25-3.06,0,0-.13,1,.27,1.24a17.93,17.93,0,0,1-3.57-1.92s.42,1,.93,1.25a22.23,22.23,0,0,1-3.76-1.38,11.33,11.33,0,0,0,1.61,1.92,11,11,0,0,1-3.82-.63,7.09,7.09,0,0,0,2.34,3.19l0,.08c-.17.57-.29,1.11-.4,1.62a.72.72,0,0,0-.64-.25c-.49.11-.7,1-.48,1.88a2.28,2.28,0,0,0,.79,1.35,11.09,11.09,0,0,0,.05,1.37c.12,1.09.71,2.72,1.94,3,0,.09-.05.18-.07.27s-.05.29-.08.43a12.2,12.2,0,0,0-3.4.12,4.84,4.84,0,0,0-3.11,1.45l-.45.77a5.74,5.74,0,0,0-.75,1.31c-1.48,2.59-2.62,4.75-3.41,6.08-2-.51-8.19-.31-10.09-.56a.83.83,0,0,0-.16-.12h0a3.68,3.68,0,0,0-.35-.34c-.29-.24-2-1.68-2.29-1.38s-.09.51.14.84c-2-.61-4.51-1.13-4.55-.25-.06,1.55,2.48,2.51,3.33,2.75a5.88,5.88,0,0,0,3.23.37c.65.65,1.52,1.16,3.71,1.84a36.18,36.18,0,0,0,7.82,1.76c-1.22,6-2.12,11.48-2.12,11.48a87.53,87.53,0,0,0-2,9.22h0c-1.13,5.6-3,15-3.51,17.16a11.3,11.3,0,0,0-.23,1.29,5.62,5.62,0,0,0-.17,1.2c-.15,5,.63,14.76-.6,24.34a.68.68,0,0,0,.13.44,1,1,0,0,0-.17.2,5.23,5.23,0,0,1-2.18,1.59c-1.16.5-3.63.74-2.26,1.18a8.52,8.52,0,0,0,3.78,0,16.94,16.94,0,0,1,2.55-.15c1.26,0,1.27-.08,1.1-1.45a2.16,2.16,0,0,0-.24-.75c.76-7.12,4.53-19.07,3.5-25.29,1.87-4.17,5-13.07,6.32-17,0,4.22,1.16,15,1.83,19.66a1.54,1.54,0,0,0,.09.31,6.61,6.61,0,0,0,.32.91c1.88,4.35,6.59,15.09,8.07,20.14-.12.54-.08.79-.15,1.2-.09.56-.63.77-.94,1.23s-.88,1.24,1.22,1.29,3.57,0,3.19-1.25a10.6,10.6,0,0,1-.4-1.6,1,1,0,0,0,.15-.1c.19-.18,0-.69,0-1.12-.42-3.23-2.95-18.14-6-22.88,0-.15,0-.27,0-.43.06-3,1.44-19.24,1.54-21.51a24.71,24.71,0,0,0,.31-5.47,43,43,0,0,1,1.48-8,20.1,20.1,0,0,0,2.87-1.05.92.92,0,0,0,.51-.53l0,0c.43-.88,1.1-3,1.33-8.39.06-1.3.06-2.3,0-3.1A5.23,5.23,0,0,0,216.55,118.83Z"/></clipPath><linearGradient id="Gradient_bez_nazwy_4-8" x1="103.16" y1="-76.42" x2="227.06" y2="-0.29" gradientTransform="matrix(0.4, -0.87, -0.54, -0.47, 151.15, 303.2)" xlink:href="#Gradient_bez_nazwy_4"/><linearGradient id="Gradient_bez_nazwy_10" x1="217.58" y1="188.14" x2="217.58" y2="211.85" gradientTransform="matrix(-0.06, 1.07, -1.01, -0.12, 315.99, -103.37)" gradientUnits="userSpaceOnUse"><stop offset="0" stop-color="#36078b"/><stop offset="1" stop-color="#168d68"/></linearGradient><linearGradient id="Gradient_bez_nazwy_10-2" x1="228.67" y1="196.19" x2="228.67" y2="228.74" gradientTransform="matrix(-0.09, 1, -1, -0.09, 319.16, -95.02)" xlink:href="#Gradient_bez_nazwy_10"/><linearGradient id="Gradient_bez_nazwy_10-3" x1="43.47" y1="122.05" x2="43.47" y2="169.89" gradientTransform="matrix(-1, 0, 0, 1, 150.07, 0)" xlink:href="#Gradient_bez_nazwy_10"/><linearGradient id="Gradient_bez_nazwy_8-19" x1="42.26" y1="220.56" x2="42.26" y2="152.54" gradientTransform="matrix(-1, 0, 0, 1, 150.07, 0)" xlink:href="#Gradient_bez_nazwy_8"/><linearGradient id="Gradient_bez_nazwy_8-20" x1="50.48" y1="220.55" x2="50.48" y2="152.54" gradientTransform="matrix(-1, 0, 0, 1, 150.07, 0)" xlink:href="#Gradient_bez_nazwy_8"/><linearGradient id="Gradient_bez_nazwy_8-21" x1="47.16" y1="220.55" x2="47.16" y2="152.54" gradientTransform="matrix(-1, 0, 0, 1, 150.07, 0)" xlink:href="#Gradient_bez_nazwy_8"/><linearGradient id="Gradient_bez_nazwy_8-22" x1="-39.01" y1="498.45" x2="-39.01" y2="430.43" gradientTransform="matrix(-0.92, -0.38, -0.38, 0.92, 265.79, -283.96)" xlink:href="#Gradient_bez_nazwy_8"/><linearGradient id="Gradient_bez_nazwy_8-23" x1="-700.32" y1="-559.75" x2="-700.32" y2="-614.66" gradientTransform="matrix(-0.04, 1, 1, 0.04, 704.06, 869.62)" xlink:href="#Gradient_bez_nazwy_8"/><linearGradient id="Gradient_bez_nazwy_7" x1="79.36" y1="77.35" x2="85.02" y2="73.44" gradientTransform="matrix(-1, 0, 0, 1, 150.07, 0)" gradientUnits="userSpaceOnUse"><stop offset="0" stop-color="#2c27ce"/><stop offset="0.65" stop-color="#ef1d68"/><stop offset="1" stop-color="#efba92"/></linearGradient><linearGradient id="Gradient_bez_nazwy_10-4" x1="126.11" y1="111.42" x2="133.8" y2="127.42" gradientTransform="matrix(1, 0, 0, 1, 0, 0)" xlink:href="#Gradient_bez_nazwy_10"/><linearGradient id="Gradient_bez_nazwy_10-5" x1="115.41" y1="114.75" x2="126.42" y2="137.11" gradientTransform="matrix(1, 0, 0, 1, 0, 0)" xlink:href="#Gradient_bez_nazwy_10"/><linearGradient id="Gradient_bez_nazwy_7-2" x1="105.92" y1="105.08" x2="100.67" y2="117.83" gradientTransform="matrix(1, 0, 0, 1, 0, 0)" xlink:href="#Gradient_bez_nazwy_7"/><clipPath id="clip-path-2"><path class="cls-1" d="M135.86,112.65c.44-.56.75-1.12.44-1.4s-2,1.32-2.24,1.59a2.82,2.82,0,0,0-.39.46.71.71,0,0,0-.39.49c-2.53.34-7.84,1.2-9.44,1.89a2.46,2.46,0,0,0-.58.36c-1.43.12-7.41-.61-12.84-1h0a13,13,0,0,0-3-.5c0-.15,0-.31,0-.45s0-.19,0-.29c1.29-.07,2.15-1.63,2.44-2.71a11.6,11.6,0,0,0,.27-1.38,2.34,2.34,0,0,0,1-1.24c.37-.9.29-1.79-.19-2a.74.74,0,0,0-.69.15c0-.54-.07-1.1-.15-1.71a2.52,2.52,0,0,0-.08-.3l0-.38c1.2-.46,1.4-2.36.4-3.31a4.93,4.93,0,0,0,.15-1.72A3.73,3.73,0,0,0,112,97c.15-.9.28-3.58-1-4.55s-2.86,5.52-3,6.35a.73.73,0,0,0,.21.72c-.21.48-.46,1.07-.73,1.72-1.34.19-5.06.48-5,1.6-1.21.52-1.44,1.89-1.33,3.71-.42.24-.49,1.09-.14,2a2.93,2.93,0,0,0,.56.89,6.18,6.18,0,0,0,.56,1.38,3.1,3.1,0,0,0,.5,1.14c-1,1.2-2.29,2.67-3.7,4.39a4.82,4.82,0,0,0-.84,1l-.25.3a2.91,2.91,0,0,0-.43,1.52,10.78,10.78,0,0,0,.48,5A54.26,54.26,0,0,1,100.19,143a25.33,25.33,0,0,0-.55,5.6c-.26,2.31-1.45,19-1.87,22.06,0,.12,0,.22,0,.33l0,0c-2.35,5.26-2.16,22.09-2,25.45a3.31,3.31,0,0,0,.08,1,6.7,6.7,0,0,1-.44,2.16c-.39,1.25,1,1.33,3.28,1.28,2.15,0,1.6-.8,1.25-1.32s-.87-.68-1-1.26c-.07-.41,0-.67-.14-1.2v0c.4-4.9,3.4-18.8,4.62-23.78a6.15,6.15,0,0,0,.18-1.31c1.65-5.63,4.28-15.57,4.55-18.68,0-.23,0-.46,0-.69H116a12.22,12.22,0,0,0,1.3-.11c2.27-.32,4.92-.57,7.53-.92-2.31,6.16-3.95,14.66-5.91,19.78a.33.33,0,0,0,.16.41,2.16,2.16,0,0,0-.28.91c-.11,1.41-.1,1.62,1.2,1.57a18.61,18.61,0,0,1,2.63-.11,8.76,8.76,0,0,0,3.87-.24c1.38-.52-1.16-.64-2.38-1.1a6.09,6.09,0,0,1-2.16-1.33l0,0c3.15-8.95,8-17.18,10.37-22a4.49,4.49,0,0,0,.82-2.71,2.44,2.44,0,0,0-.64-1.74l0,0a2.06,2.06,0,0,0-.18-.17c-.74-.71-2-1.18-4-1.09-2.19.09-8.2.09-12.26.1,0-.55,0-.87,0-.87s-.09-13.73-1-22h1.53c5.53,0,7.74-.61,8.66-1l0,0a43.18,43.18,0,0,0,6-2.5c2.37-1.16,3.1-1.19,3.68-1.71a3.74,3.74,0,0,0,2.6,0c.85-.33,3.21-1.62,3.38-3.2C140.89,111.57,138,112.12,135.86,112.65Z"/></clipPath><linearGradient id="Gradient_bez_nazwy_4-9" x1="-59.48" y1="253.73" x2="64.43" y2="329.86" gradientTransform="matrix(-0.4, -0.87, 0.54, -0.47, -81.03, 303.2)" xlink:href="#Gradient_bez_nazwy_4"/><linearGradient id="Gradient_bez_nazwy_5-4" x1="68.6" y1="97.49" x2="63.54" y2="120.8" gradientTransform="matrix(1, 0, 0, 1, 0, 0)" xlink:href="#Gradient_bez_nazwy_5"/><linearGradient id="Gradient_bez_nazwy_8-24" x1="72.48" y1="121.1" x2="85.23" y2="122.35" gradientTransform="matrix(1, 0, 0, 1, 0, 0)" xlink:href="#Gradient_bez_nazwy_8"/><linearGradient id="Gradient_bez_nazwy_7-3" x1="60.27" y1="187.42" x2="60.58" y2="178.11" gradientTransform="matrix(1, 0, 0, 1, 0, 0)" xlink:href="#Gradient_bez_nazwy_7"/><linearGradient id="Gradient_bez_nazwy_8-25" x1="64.65" y1="118.49" x2="69.52" y2="140.24" gradientTransform="matrix(1, 0, 0, 1, 0, 0)" xlink:href="#Gradient_bez_nazwy_8"/><linearGradient id="Gradient_bez_nazwy_9" x1="68.46" y1="157.16" x2="69.12" y2="216.82" gradientUnits="userSpaceOnUse"><stop offset="0" stop-color="#f70f47"/><stop offset="1" stop-color="#9e005d"/></linearGradient><linearGradient id="Gradient_bez_nazwy_9-2" x1="61.49" y1="157.23" x2="62.16" y2="216.9" xlink:href="#Gradient_bez_nazwy_9"/><linearGradient id="Gradient_bez_nazwy_9-3" x1="64.28" y1="157.2" x2="64.95" y2="216.87" xlink:href="#Gradient_bez_nazwy_9"/><linearGradient id="Gradient_bez_nazwy_9-4" x1="73.13" y1="157.1" x2="73.8" y2="216.77" xlink:href="#Gradient_bez_nazwy_9"/><linearGradient id="Gradient_bez_nazwy_9-5" x1="71.87" y1="157.12" x2="72.54" y2="216.79" xlink:href="#Gradient_bez_nazwy_9"/><linearGradient id="Gradient_bez_nazwy_8-26" x1="60.87" y1="120.84" x2="58.37" y2="136.46" gradientTransform="matrix(1, 0, 0, 1, 0, 0)" xlink:href="#Gradient_bez_nazwy_8"/><linearGradient id="Gradient_bez_nazwy_7-4" x1="75.63" y1="187.94" x2="75.95" y2="178.63" gradientTransform="matrix(1, 0, 0, 1, 0, 0)" xlink:href="#Gradient_bez_nazwy_7"/><linearGradient id="Gradient_bez_nazwy_5-5" x1="67.68" y1="96.88" x2="62.62" y2="120.19" gradientTransform="translate(-16.57 12.33) rotate(-9.15)" xlink:href="#Gradient_bez_nazwy_5"/><linearGradient id="Gradient_bez_nazwy_5-6" x1="70.66" y1="97.52" x2="65.6" y2="120.83" gradientTransform="translate(-16.57 12.33) rotate(-9.15)" xlink:href="#Gradient_bez_nazwy_5"/><clipPath id="clip-path-3"><path class="cls-1" d="M91,117.57a4.34,4.34,0,0,0-1.83.89,6.55,6.55,0,0,0-1.67,1.09.43.43,0,0,0-.26,0c-.82.37-6.58,1.53-8.92,2.26l-.06,0c-1.14-.32-4.22-1.81-8.39-3.66a16.55,16.55,0,0,0-.19-2.59,3.87,3.87,0,0,0,.74-1.85,17.35,17.35,0,0,0-.42-5.09c.34.57.1-1.61-.61-2.51a4.38,4.38,0,0,0-2.25-1.29,3.66,3.66,0,0,0-1.62-.21,4.09,4.09,0,0,0-2.91.92,7.16,7.16,0,0,0-2.78,6.88,16.35,16.35,0,0,1-.53,7.28,14.43,14.43,0,0,0-.54,2.12c-.24.37-.5.77-.8,1.24-2.57,4.11-3.28,6.07-3.5,7a1,1,0,0,0,.42,1l.09.14a20.54,20.54,0,0,0,4.67,4.79,14.91,14.91,0,0,1,2.05,2.14,1.08,1.08,0,0,0,.29.7c.21.2.62.17,1.06.05l-.07.33c-.08.34-.74,3.05-.77,3.35a21.37,21.37,0,0,0-.43,4.56c-.21,1.89-1.13,15.47-1.46,18,0,.1,0,.18,0,.27v0c-1.84,4.29-1.7,18-1.6,20.74,0,.14,0,.21.09.24a1.93,1.93,0,0,0,0,.54,5.35,5.35,0,0,1-.35,1.81c-.31,1,.76,1.15,2.57,1.11s1.26-.72,1-1.14-.68-.56-.76-1,0-.55-.12-1h0c.39-3.73,2.67-15.32,3.63-19.38a5.25,5.25,0,0,0,.14-1.07c1.19-4.22,3-11.43,3.49-14.52.59,3.47,2,11.32,2.92,15-1.28,5.12,1.13,15.56,1.28,21.58l0,0s0,.08,0,.13c-.14,1.15-.13,1.21.89,1.21a13.13,13.13,0,0,1,2.06.12,6.63,6.63,0,0,0,3,0c1.11-.37-.88-.57-1.82-1a4.24,4.24,0,0,1-1.76-1.33.81.81,0,0,0-.15-.19c-.08-8,.8-16,1-20.13a5.34,5.34,0,0,0,0-.73,9.45,9.45,0,0,0,0-1.21c-.14-1.87-.45-9.87-.65-14.64a75.88,75.88,0,0,0-.45-7.88c-.12-2.43-2.89-10.07-1-15,.78-2.06.47-2.92-.16-3.9a22.29,22.29,0,0,0,4.41,1,1.54,1.54,0,0,0,.74,0,20.57,20.57,0,0,0,6.25-2.37c2-1,2.78-.77,3.13-1.32a1.59,1.59,0,0,0,1.35-.27c.87-.79.87-.67.61-1.81a.74.74,0,0,0-.11-.24l.16-.11C90.34,118.15,91.51,117.53,91,117.57ZM57.57,130c.54-.85,1.52-2.17,2.75-3.85a5.14,5.14,0,0,0,2,.56,42.43,42.43,0,0,1,1.13,5.22,15.26,15.26,0,0,1,0,4.5c-.24.06-.49.13-.78.19h0C61.54,135.3,59,131.72,57.57,130Z"/></clipPath><linearGradient id="Gradient_bez_nazwy_4-10" x1="-9.26" y1="216.6" x2="114.65" y2="292.73" gradientTransform="matrix(-0.4, -0.87, 0.54, -0.47, -81.03, 303.2)" xlink:href="#Gradient_bez_nazwy_4"/><linearGradient id="Gradient_bez_nazwy_2-9" x1="126.03" y1="157.11" x2="126.03" y2="192.11" gradientTransform="matrix(1, 0, 0, 1, 0, 0)" xlink:href="#Gradient_bez_nazwy_2"/></defs><title>Главная</title><g class="cls-2"><g id="Слой_2" data-name="Слой 2"><g id="Objects"><path class="cls-3" d="M129.45,19.07c3.18-1.48,4.82.75,4.75,2.64-.1,2.68-1.49,3.16,2.3,5,2.8,1.33,3.86,4.7,1.19,6.82-3.74,3,.83,4.26,2.05,6.21,2.52,4-.54,5.5-5.43,8.31s-9.14,2.35-13.29-.54c-3.07-2.13-5.07-4.73-3.76-7.5,1.88-4,6.07-2,4.1-5.36-1.18-2-1.79-6,3-7S124.87,21.2,129.45,19.07Z"/><path class="cls-4" d="M108.84,14.85c-4.29-.32-5.21,2.95-4.31,5.09,1.28,3,3.08,3-.5,6.69-2.64,2.73-2.4,7.07,1.59,8.35,5.58,1.78.88,5.25.32,8-1.15,5.71,3,6.08,9.83,7.2,7,1.15,11.51-1.25,15-6.36,2.6-3.77,3.78-7.63,1.08-10.24-3.87-3.75-7.84.33-7-4.38.49-2.82-.53-7.63-6.46-6.69S115,15.31,108.84,14.85Z"/><path class="cls-5" d="M119.95,43c-3.49,6.89-4.32,11.38,1.22,11.19S131.9,39,127.48,36.8C124.37,35.28,121.61,39.67,119.95,43Z"/><path class="cls-6" d="M120.82,69.56l12.4-1.64A3.19,3.19,0,0,0,136,64.86l.52-17a.63.63,0,0,0-.72-.65l-22.84,3a.63.63,0,0,0-.52.81l4.93,16.33A3.18,3.18,0,0,0,120.82,69.56Z"/><path class="cls-7" d="M111.53,32.61c4,.66,7.44,1.85,5.09,3.32s-11.5-1-10.5-2.71C106.84,32,109.62,32.29,111.53,32.61Z"/><path class="cls-8" d="M109.65,20.31c1.21,2.32,2.28,3.43,3.32,1.87s-2.06-5.94-3.53-5.16C108.41,17.58,109.08,19.2,109.65,20.31Z"/><path class="cls-9" d="M130.64,22.41c-.63,2.54-.56,4.08,1.25,3.6s2.39-5.82.77-6.2C131.51,19.55,130.94,21.2,130.64,22.41Z"/><path class="cls-10" d="M136.64,33.29c1.48-1.72,2-2.94.45-3.28s-4.14,3.57-3,4.5C134.84,35.17,135.93,34.11,136.64,33.29Z"/><path class="cls-11" d="M117.28,31.12c-1.59-.31-2.54-.22-2.19.89s3.68,1.3,3.87.28C119.09,31.58,118,31.27,117.28,31.12Z"/><path class="cls-12" d="M208.88,51.42c-1.45-2.23,3-5,7.9-3.25a10.45,10.45,0,0,1-1.75,4C213.91,53.55,210.92,54.53,208.88,51.42Z"/><path class="cls-13" d="M206,50.49c-2.17-1.54.92-5.76,6.16-5.92a10.46,10.46,0,0,1-.17,4.34C211.46,50.64,209,52.65,206,50.49Z"/><path class="cls-14" d="M204.19,50.06c-2.38-.37-1.59-5,2.58-7.29a9.46,9.46,0,0,1,1.62,3.58C208.67,48,207.53,50.57,204.19,50.06Z"/><path class="cls-15" d="M203.52,49.11c-2.07.64-3.27-3.44-.78-6.9a8.5,8.5,0,0,1,2.72,2.26C206.3,45.65,206.41,48.21,203.52,49.11Z"/><path class="cls-16" d="M203.71,37.37c-6.65-6.84,7-19.72,25.57-16.88,0,0,0,8.49-3.43,15.2C222.87,41.42,213,46.94,203.71,37.37Z"/><path class="cls-17" d="M226.72,21.74A16.09,16.09,0,0,0,221.15,24a12.8,12.8,0,0,0-1.26.8c-.4.29-.84.53-1.22.86l-1.14,1-.57.48-.52.53a40.65,40.65,0,0,0-3.93,4.46l-1.75,2.42-1.55,2.57c-.26.43-.55.84-.78,1.28l-.69,1.34-1.39,2.68-2.47,5.55c-.73,1.9-1.53,3.78-2.2,5.71s-1.35,3.87-2.14,5.8l-.14,0,1.54-6c.55-2,1.25-3.92,1.87-5.88s1.53-3.83,2.28-5.74L206.45,39l.69-1.38c.23-.46.53-.89.79-1.33l1.63-2.63,1.86-2.48a34.18,34.18,0,0,1,4.27-4.47l.57-.52.62-.46,1.25-.92c.41-.31.88-.54,1.32-.81a12,12,0,0,1,1.36-.74,15.09,15.09,0,0,1,5.92-1.71Z"/><path class="cls-18" d="M212.33,31.92c7.25.38,7.78-13.89-3.16-23.11,0,0-4.88,4.23-7,9.59C200.4,23,202.18,31.4,212.33,31.92Z"/><path class="cls-19" d="M209.83,10.86A40.43,40.43,0,0,1,211,17.15c.1,1.06.18,2.13.21,3.2s.08,2.14.07,3.21A79.42,79.42,0,0,1,210,36.31c-.22,1-.48,2.09-.71,3.13L209,41l-.44,1.54-.88,3.08c-.33,1-.7,2-1.07,3l-.55,1.5-.62,1.47-1.27,2.93c-.43,1-1,1.9-1.46,2.84s-1,1.88-1.52,2.8l-.1,0c.84-1.94,1.74-3.86,2.53-5.82l1.13-3,.56-1.49.48-1.51,1-3,.82-3.06.41-1.53.34-1.55c.22-1,.45-2.06.66-3.1a88.51,88.51,0,0,0,1.46-12.59,60.06,60.06,0,0,0-.68-12.64Z"/><path class="cls-20" d="M218.9,26.43c-10-8.84,7.65-28.27,33.88-26.29,0,0,1,11.84-3.17,21.58C246.09,30,232.92,38.81,218.9,26.43Z"/><path class="cls-21" d="M249.39,2.14a72.12,72.12,0,0,0-7.89,5.44c-1.25,1-2.53,1.93-3.72,3L236,12.11l-1.73,1.63-1.73,1.63-1.67,1.69-1.67,1.68c-.56.56-1.06,1.18-1.59,1.76-1,1.2-2.18,2.3-3.15,3.55l-3,3.68c-1,1.25-1.89,2.54-2.84,3.81-.46.64-1,1.26-1.4,1.92l-1.3,2c-.87,1.32-1.78,2.63-2.62,4s-1.6,2.74-2.43,4.1l-1.24,2-1.1,2.12-2.21,4.25c-1.5,2.83-2.7,5.8-4.21,8.67l-.17-.06,1.73-4.5.87-2.25c.29-.75.57-1.51.92-2.23l2-4.38,1-2.19,1.15-2.12,2.31-4.24c.82-1.38,1.71-2.73,2.56-4.09l1.29-2c.44-.67.94-1.31,1.4-2,1-1.3,1.87-2.62,2.84-3.9a102.9,102.9,0,0,1,13.3-14A72.58,72.58,0,0,1,249.32,2Z"/><path class="cls-22" d="M220.71,40C215.94,31.65,232.53,22.49,250,30c0,0-2.1,8.31-7.2,14C238.44,48.81,227.4,51.73,220.71,40Z"/><path class="cls-23" d="M247.19,30.53a39.72,39.72,0,0,0-6.68,1.74l-1.63.55-1.6.63c-1.07.4-2.1.9-3.14,1.38a70.07,70.07,0,0,0-11.74,7l-2.75,2c-.93.66-1.76,1.46-2.64,2.18s-1.78,1.45-2.57,2.27-1.65,1.59-2.5,2.36-1.63,1.61-2.43,2.45l-2.38,2.51c-1.57,1.69-3,3.49-4.63,5.19l-.1-.07c1.41-1.85,2.78-3.72,4.21-5.54l2.28-2.63c.76-.87,1.5-1.78,2.34-2.58,1.64-1.65,3.23-3.34,5-4.83.89-.75,1.71-1.58,2.65-2.26l2.77-2.12a64.91,64.91,0,0,1,12.1-6.86,43.14,43.14,0,0,1,13.43-3.51Z"/><path class="cls-24" d="M232.49,19.6a11.76,11.76,0,0,1,3.39-.22,18.59,18.59,0,0,1,3.3.51A17.4,17.4,0,0,1,242.34,21a9.86,9.86,0,0,1,2.8,2l-.05.11a33.68,33.68,0,0,0-6.2-2.07,63.26,63.26,0,0,0-6.41-1.31Z"/><path class="cls-25" d="M237.31,13.92a8.72,8.72,0,0,1,2.78-.7,13.69,13.69,0,0,1,2.79,0,13,13,0,0,1,2.74.63,7.47,7.47,0,0,1,2.51,1.43l0,.11a28,28,0,0,0-5.35-1,52.77,52.77,0,0,0-5.44-.36Z"/><path class="cls-26" d="M226.83,15.34a14.88,14.88,0,0,1,0-3.55c.06-.53.11-1,.13-1.55a8.09,8.09,0,0,0-.09-1.72l.08-.08a4.39,4.39,0,0,1,1,3.44,11.83,11.83,0,0,1-1,3.5Z"/><path class="cls-27" d="M233.88,10a10.61,10.61,0,0,1,.66-2.67c.15-.39.28-.77.4-1.14a4.86,4.86,0,0,0,.26-1.3l.07,0a3.35,3.35,0,0,1,0,2.75A10.09,10.09,0,0,1,233.95,10Z"/><path class="cls-28" d="M207.24,64.74l-10-4.53a1.08,1.08,0,0,1-.58-1.31l3.87-12.21A1.08,1.08,0,0,1,202,46l12.75,5.78a1.08,1.08,0,0,1,.48,1.54l-6.63,11A1.08,1.08,0,0,1,207.24,64.74Z"/><path class="cls-29" d="M215,54.7l-15.34-7a.71.71,0,0,1-.39-.84l.59-2.11a.71.71,0,0,1,1-.45l15.94,7.23a.71.71,0,0,1,.3,1l-1.19,1.83A.71.71,0,0,1,215,54.7Z"/><polygon class="cls-30" points="249.13 31.22 249.13 141.65 103.2 140.36 103.2 41.03 249.13 31.22"/><polygon class="cls-31" points="238.28 37.53 238.28 137.58 98.22 137.58 98.22 46.42 238.28 37.53"/><polygon class="cls-32" points="134.74 103.61 164.54 102.92 164.54 61.96 134.74 63.46 134.74 103.61"/><polygon class="cls-33" points="139 88.91 104.25 90.06 104.25 52.98 139 50.94 139 88.91"/><path class="cls-34" d="M132.39,70.33c0,6.54-4.93,12-11,12.26s-10.81-4.82-10.81-11.27,4.82-11.93,10.81-12.26S132.39,63.79,132.39,70.33Z"/><path class="cls-35" d="M129.71,70.45a9.59,9.59,0,0,1-3.39,7.36,8.55,8.55,0,0,1-2,1.26,8.23,8.23,0,0,1-1,.37l-.62.16a7.48,7.48,0,0,1-1.28.16,7.65,7.65,0,0,1-2.45-.3,8.39,8.39,0,0,1-5.76-8.24,9.7,9.7,0,0,1,.82-3.9,9.28,9.28,0,0,1,2.84-3.67,8.67,8.67,0,0,1,.89-.61,8.13,8.13,0,0,1,2.15-.89,7.72,7.72,0,0,1,9.25,5.09A9.15,9.15,0,0,1,129.71,70.45Z"/><path class="cls-36" d="M121.42,71.84a1,1,0,0,1-1-1V65.12a1,1,0,1,1,2,0v5.71A1,1,0,0,1,121.42,71.84Z"/><path class="cls-36" d="M121.42,71.84a1,1,0,0,1-.59-1.83l2.75-2a1,1,0,1,1,1.19,1.64l-2.75,2A1,1,0,0,1,121.42,71.84Z"/><polygon class="cls-37" points="233.98 131.19 94.98 131.75 94.98 41.71 233.98 32.42 233.98 131.19"/><path class="cls-38" d="M150.88,86.44a9.26,9.26,0,0,1-10.61-1.95,10.08,10.08,0,0,1-2.63-5l4.75-1.3a4.72,4.72,0,0,0,6.66,3.5Z"/><path class="cls-39" d="M154.23,84l-.24.25-3.38-3.69a5.62,5.62,0,0,0,1.57-3.91,4.86,4.86,0,0,0-5-5,5.19,5.19,0,0,0-4.43,3.12l-4.37-2.11a11,11,0,0,1,1.85-2.84,9.49,9.49,0,0,1,14-.64A10.92,10.92,0,0,1,154.23,84Z"/><path class="cls-40" d="M142.29,77a5.51,5.51,0,0,0,.11,1.11l-4.75,1.3a11.15,11.15,0,0,1,.78-6.86l4.37,2.11A5.61,5.61,0,0,0,142.29,77Z"/><path class="cls-41" d="M154,84.24a10.21,10.21,0,0,1-3.11,2.2l-1.83-4.79a5.16,5.16,0,0,0,1.55-1.1Z"/><polygon class="cls-42" points="156.27 89.05 156.27 88.03 154.33 88.09 154.33 89.11 156.27 89.05"/><polygon class="cls-42" points="159.72 88.94 159.72 87.91 157.77 87.98 157.77 89 159.72 88.94"/><polygon class="cls-42" points="163.19 88.83 163.19 87.8 161.23 87.86 161.23 88.89 163.19 88.83"/><path class="cls-39" d="M161.84,69.8a1.75,1.75,0,0,0-1.9.5,2,2,0,0,0-.48.94l.86.16a1,1,0,0,1,.87-.77.82.82,0,0,1,.33.05Z"/><path class="cls-43" d="M162.43,70.18l0,0-.6.7a.91.91,0,0,1,.28.67,1,1,0,0,1-.89,1,.84.84,0,0,1-.79-.48l-.79.44a1.7,1.7,0,0,0,2.83.37A1.93,1.93,0,0,0,162.43,70.18Z"/><path class="cls-43" d="M160.3,71.59a1,1,0,0,1,0-.2l-.86-.16a1.91,1.91,0,0,0,.14,1.21l.79-.44A.93.93,0,0,1,160.3,71.59Z"/><path class="cls-40" d="M162.39,70.14a1.64,1.64,0,0,0-.55-.34l-.33.87a.82.82,0,0,1,.28.17Z"/><path class="cls-40" d="M159.56,83.59a1.69,1.69,0,0,0,1.62,1.07,1.74,1.74,0,0,0,1-.33l-.48-.76a.85.85,0,0,1-1.11-.09.89.89,0,0,1-.19-.28Z"/><path class="cls-41" d="M159.42,82.86s0,0,0,.06l.88-.06a1,1,0,0,1,.26-.7.86.86,0,0,1,1.25,0,1,1,0,0,1,.21,1l.83.27a1.94,1.94,0,0,0,.09-.6,1.74,1.74,0,0,0-1.77-1.79A1.9,1.9,0,0,0,159.42,82.86Z"/><path class="cls-39" d="M161.81,83.43l-.15.13.48.76a1.93,1.93,0,0,0,.72-1l-.83-.27A1,1,0,0,1,161.81,83.43Z"/><path class="cls-43" d="M159.42,82.92a1.85,1.85,0,0,0,.14.67l.81-.39a1,1,0,0,1-.07-.33Z"/><path class="cls-41" d="M161.88,78.85A2,2,0,0,0,163,77.1a1.84,1.84,0,0,0-.28-1l-.74.53a1,1,0,0,1-.12,1.17.92.92,0,0,1-.28.21Z"/><path class="cls-40" d="M161.18,79h.06l0-.92a.83.83,0,0,1-.66-.25,1,1,0,0,1,0-1.32.88.88,0,0,1,.91-.26l.28-.89a1.63,1.63,0,0,0-.57-.08,1.91,1.91,0,0,0-1.76,1.93A1.73,1.73,0,0,0,161.18,79Z"/><path class="cls-43" d="M161.81,76.49a.89.89,0,0,1,.12.15l.74-.53a1.67,1.67,0,0,0-.92-.72l-.28.89A.83.83,0,0,1,161.81,76.49Z"/><path class="cls-39" d="M161.24,79a1.73,1.73,0,0,0,.64-.17l-.35-.84a.86.86,0,0,1-.32.09Z"/><polygon class="cls-44" points="238.28 37.54 98.21 46.42 98.21 33.27 238.28 23.11 238.28 37.54"/><polygon class="cls-45" points="235.44 34.7 100.58 43.51 100.58 39.16 235.44 29.95 235.44 34.7"/><polygon class="cls-46" points="102.64 37.55 100.58 37.7 100.58 35.44 102.64 35.29 102.64 37.55"/><polygon class="cls-46" points="106.33 37.3 104.25 37.44 104.25 35.18 106.33 35.03 106.33 37.3"/><polygon class="cls-46" points="110.03 37.04 107.94 37.19 107.94 34.92 110.03 34.77 110.03 37.04"/><polygon class="cls-37" points="160.3 123.34 228.89 122.69 228.89 43.33 160.3 47.45 160.3 123.34"/><path class="cls-47" d="M169.43,64.56a1.78,1.78,0,0,1-1.24-.49,1.9,1.9,0,0,1-.58-1.39V52.29a2,2,0,0,1,1.86-2l61.18-3.52a1.91,1.91,0,0,1,2,1.93V59.49a2.11,2.11,0,0,1-2,2.09l-61.18,3Zm61.33-16.92h-.06l-61.18,3.52a1.11,1.11,0,0,0-1,1.12V62.67a1,1,0,0,0,.3.73.89.89,0,0,0,.65.24l61.18-3a1.19,1.19,0,0,0,1.12-1.18V48.66a1,1,0,0,0-.31-.74A1,1,0,0,0,230.77,47.64Z"/><path class="cls-47" d="M169.45,82.22a1.79,1.79,0,0,1-1.25-.51,1.91,1.91,0,0,1-.58-1.39V69.93a2,2,0,0,1,1.87-2l61.18-2.81a1.91,1.91,0,0,1,1.43.53,1.93,1.93,0,0,1,.6,1.41V77.88a2.09,2.09,0,0,1-2,2.07l-61.18,2.26ZM230.75,66h-.05l-61.18,2.81a1.09,1.09,0,0,0-1,1.1V80.32a1,1,0,0,0,.3.73.92.92,0,0,0,.65.25L230.66,79a1.17,1.17,0,0,0,1.11-1.16V67a1,1,0,0,0-.31-.75A1,1,0,0,0,230.75,66Z"/><path class="cls-47" d="M169.46,99.87a1.81,1.81,0,0,1-1.27-.52,1.93,1.93,0,0,1-.58-1.4V87.57a2,2,0,0,1,1.87-2l61.18-2.09a2,2,0,0,1,1.43.55,2,2,0,0,1,.6,1.42V96.27a2.06,2.06,0,0,1-2,2.05l-61.18,1.55Zm61.27-15.48h0l-61.18,2.09a1.06,1.06,0,0,0-1,1.08V98a1,1,0,0,0,.3.74,1,1,0,0,0,.66.26l61.18-1.55a1.14,1.14,0,0,0,1.1-1.14V85.44a1,1,0,0,0-.32-.76A1,1,0,0,0,230.73,84.39Z"/><path class="cls-47" d="M169.48,117.53a1.83,1.83,0,0,1-1.29-.53,2,2,0,0,1-.58-1.4V105.21a2,2,0,0,1,1.88-2l61.18-1.37a2,2,0,0,1,1.42.56,2,2,0,0,1,.59,1.42v10.83a2,2,0,0,1-2,2l-61.18.83Zm0-.92v0l61.18-.83a1.12,1.12,0,0,0,1.1-1.12V103.83a1.06,1.06,0,0,0-.32-.77,1.14,1.14,0,0,0-.76-.3l-61.18,1.38a1,1,0,0,0-1,1.07v10.39a1,1,0,0,0,.31.75A.85.85,0,0,0,169.49,116.61Z"/><polygon class="cls-37" points="198.8 91.04 225.26 90.24 225.26 88.11 198.8 88.95 198.8 91.04"/><polygon class="cls-37" points="207.35 94.5 225.26 94.01 225.26 91.89 207.35 92.41 207.35 94.5"/><polygon class="cls-37" points="200.9 94.69 205.29 94.56 205.29 92.47 200.9 92.6 200.9 94.69"/><polygon class="cls-37" points="198.8 55.47 225.26 54.06 225.26 51.94 198.8 53.38 198.8 55.47"/><polygon class="cls-37" points="209.41 58.64 225.26 57.83 225.26 55.71 209.41 56.54 209.41 58.64"/><polygon class="cls-37" points="190.96 59.58 207.35 58.74 207.35 56.65 190.96 57.5 190.96 59.58"/><polygon class="cls-37" points="214.58 108.74 225.26 108.55 225.26 106.42 214.58 106.64 214.58 108.74"/><polygon class="cls-37" points="202.11 108.97 212.62 108.78 212.62 106.68 202.11 106.89 202.11 108.97"/><polygon class="cls-37" points="207.35 112.61 225.26 112.32 225.26 110.19 207.35 110.51 207.35 112.61"/><polygon class="cls-37" points="188.09 112.92 205.29 112.64 205.29 110.54 188.09 110.84 188.09 112.92"/><path class="cls-48" d="M172.59,79.07,234,76.69a1.63,1.63,0,0,0,1.56-1.62V64.22A1.47,1.47,0,0,0,234,62.73l-61.43,2.92a1.55,1.55,0,0,0-1.44,1.57V77.63A1.4,1.4,0,0,0,172.59,79.07Z"/><g class="cls-49"><polygon class="cls-50" points="205.8 67.94 232.23 66.75 232.23 65.17 205.8 66.38 205.8 67.94"/><polygon class="cls-50" points="205.8 70.71 232.23 69.57 232.23 67.98 205.8 69.15 205.8 70.71"/><polygon class="cls-50" points="220.4 72.87 232.23 72.38 232.23 70.8 220.4 71.3 220.4 72.87"/></g><polygon class="cls-51" points="183.48 74.48 190.33 74.2 190.33 67.1 183.48 67.41 183.48 74.48"/><polygon class="cls-33" points="175.57 74.81 182.36 74.53 182.36 67.47 175.57 67.78 175.57 74.81"/><path class="cls-52" d="M109.52,106.58l97,26.43a2.45,2.45,0,0,0,3-1.72L214,114.9a2.44,2.44,0,0,0-1.72-3l-97-26.43a2.44,2.44,0,0,0-3,1.72l-4.47,16.4A2.45,2.45,0,0,0,109.52,106.58Z"/><g class="cls-49"><rect class="cls-53" x="186.54" y="89.17" width="2.49" height="42.35" transform="translate(31.93 262.49) rotate(-74.75)"/><rect class="cls-54" x="185.38" y="93.43" width="2.49" height="42.35" transform="matrix(0.26, -0.96, 0.96, 0.26, 26.96, 264.51)"/><rect class="cls-55" x="195.59" y="112.58" width="2.49" height="18.78" transform="translate(27.38 279.79) rotate(-74.75)"/></g><rect class="cls-56" x="130.35" y="95.17" width="11.45" height="11.45" transform="translate(2.95 205.64) rotate(-74.75)"/><rect class="cls-57" x="117.49" y="91.66" width="11.45" height="11.45" transform="translate(-3.15 190.65) rotate(-74.75)"/><ellipse class="cls-58" cx="202.71" cy="200.15" rx="17.23" ry="1.16"/><path class="cls-59" d="M204.77,138.44c1.12.57,2.18.37,5.13.19,4.26-.25,5.26-.59,7.8-1.67,1.66-.71-.39-4.24-2.8-3.91-2,.28-8.71,3.69-10,3.85C204.13,137,203.86,138,204.77,138.44Z"/><path class="cls-60" d="M218.24,136.4c.43-.88,1.1-3,1.33-8.39a34.47,34.47,0,0,0-.13-5.71,2.19,2.19,0,0,0-2.74-2.1c-1.37.69-2.75,2.55-2.72,3.5.18,5.36.65,9.46.46,10.77C214.17,136.37,217.73,137.44,218.24,136.4Z"/><path class="cls-61" d="M214.51,196.48a8.18,8.18,0,0,0-.19,1.4c-.09.56-.63.77-.94,1.23s-.88,1.24,1.22,1.29,3.57,0,3.19-1.25a6.22,6.22,0,0,1-.43-2.16,1.32,1.32,0,0,0-.25-1.05C216.85,195.69,214.84,195.26,214.51,196.48Z"/><path class="cls-61" d="M191.59,197.5a5.23,5.23,0,0,1-2.18,1.59c-1.16.5-3.63.74-2.26,1.18a8.52,8.52,0,0,0,3.78,0,16.94,16.94,0,0,1,2.55-.15c1.26,0,1.27-.08,1.1-1.45C194.35,196.83,192.16,196.43,191.59,197.5Z"/><path class="cls-62" d="M217.14,112.42c-.65,2.48-.81,3-2.07,3.88a6,6,0,0,1-4.19.55c-1.29-.2-1.89-1.89-2-3a15.7,15.7,0,0,1,.68-6,4.12,4.12,0,0,1,4.17-2.51C215.49,105.65,218.72,106.37,217.14,112.42Z"/><path class="cls-63" d="M200.91,132.1c.84-.51,2.54-1.94,5.63-6.36a34.4,34.4,0,0,0,3-4.88c.82-1.61-.24-3.15-1.18-3.24-1.52-.15-3.69.67-4.17,1.49-2.73,4.61-4.54,8.33-5.4,9.33C197.49,129.89,199.91,132.71,200.91,132.1Z"/><path class="cls-62" d="M215.16,116.65c-.07.88-.16,1.9-.28,2.82a2.43,2.43,0,0,1-2.48,2.11l-.14,0c-1.09-.17-2.21-1.36-1.94-2.43.17-.7.31-1.41.41-2a2.86,2.86,0,0,1,2.3-2.36h0A1.8,1.8,0,0,1,215.16,116.65Z"/><path class="cls-64" d="M218.51,128.2A52.87,52.87,0,0,0,213.36,146l-15.21-2.39s2.33-14.23,4.57-21.87a5.91,5.91,0,0,1,3.91-4,11.06,11.06,0,0,1,4.19-.26l2.81.44a10.79,10.79,0,0,1,2.91.84C220.5,120.75,220.28,124.53,218.51,128.2Z"/><path class="cls-65" d="M211.84,155.33s1.82-3,1.52-9.29l-15.21-2.39a87.53,87.53,0,0,0-2,9.22Z"/><path class="cls-66" d="M206.39,176.54c-2-4.74,2.85-6.46,5-3.15,3.1,4.68,5.65,19.69,6.07,22.94.05.43.22.93,0,1.12A3.29,3.29,0,0,1,216,198c-.57.08-1.12.17-1.3-.52C213.5,192.81,208.38,181.13,206.39,176.54Z"/><path class="cls-67" d="M204.18,154.81c.43-6.23,3.62-10.63,7.11-8a5.26,5.26,0,0,1,1.75,4.55c0,1.64-1.48,18.56-1.55,21.65-.14,7-5.23,4.28-5.52,2.3C205.26,170.32,203.95,158.21,204.18,154.81Z"/><path class="cls-68" d="M194.32,198.13c.74-7.3,4.79-19.88,3.44-26-.86-3.88-5.39-4.31-5.53.36-.15,5,.63,14.76-.6,24.34C191.51,197.8,194.22,199,194.32,198.13Z"/><path class="cls-69" d="M197.39,173.64c-.89,1.79-6.38,3.16-4.76-3.61.72-3,4-19.71,4.37-21.31s1-3.92,1.89-4.09c4.29-.84,7.47,4.61,5.45,10.52C203,159.11,199.24,169.93,197.39,173.64Z"/><ellipse class="cls-62" cx="208.89" cy="110.93" rx="0.9" ry="1.72" transform="translate(-19.91 51) rotate(-13.29)"/><ellipse class="cls-62" cx="217.1" cy="112.22" rx="1.72" ry="0.9" transform="matrix(0.52, -0.86, 0.86, 0.52, 8.78, 240)"/><path class="cls-70" d="M188.21,128c.78,1,1.41,1.57,4.24,2.45a35.58,35.58,0,0,0,8,1.77c1.8.14,1.57-4.17-.76-4.88-2-.6-9.46-.3-10.65-.67C188.23,126.38,187.58,127.15,188.21,128Z"/><path class="cls-62" d="M189.26,126.59c-.73-.38-7-2.55-7.09-1.15s2.48,2.51,3.33,2.75c1.65.47,3,.8,3.7.08C189.69,127.77,190,126.95,189.26,126.59Z"/><path class="cls-62" d="M188.88,126.23c-.29-.24-2-1.68-2.29-1.38-.45.46.63,1.46,1.34,2.12.38.36,1.14.59,1.4.24S189.34,126.63,188.88,126.23Z"/><path class="cls-71" d="M211.86,106.25c-1.6.65-2.06,1.37-2.3,3.18s0,5,3.26,6.21,4.51-2,5.07-4.2.69-4-.92-4.63C214.57,105.81,212.82,105.85,211.86,106.25Z"/><path class="cls-72" d="M217.82,107.18c.11-1.41-2-2.4-2.25-3.06,0,0-.13,1,.27,1.24a17.93,17.93,0,0,1-3.57-1.92s.42,1,.93,1.25a22.23,22.23,0,0,1-3.76-1.38,11.33,11.33,0,0,0,1.61,1.92,11,11,0,0,1-3.82-.63s1.14,3.2,3.34,3.59S217.61,109.77,217.82,107.18Z"/><g class="cls-73"><path class="cls-74" d="M237.53,105.72c-11.55-1.94-28,5.79-31.28,17.87-3.39,12.33,5.88,18.23-1.72,35.3-6,13.5.89,28.31,2.52,40,1.79,12.83-4.63,19-2.52,30.48,4.88,26.34,4.56,34.1,22.67,39.68,18.59,5.73,22.41-20.19,34.48-40.69,8.91-15.13,14-30.78,7.89-41.89-8.75-16-21.54.23-17.06-19,2.68-11.52,2.25-31.43-14.4-28.43S254.17,108.5,237.53,105.72Z"/></g><ellipse class="cls-75" cx="120.51" cy="200.7" rx="28.06" ry="1.19"/><path class="cls-62" d="M107.94,98.76c.18-.82,1.89-7.22,3-6.35s1.14,3.65,1,4.55a3.4,3.4,0,0,1-2.65,2.85C108.6,99.87,107.78,99.55,107.94,98.76Z"/><path class="cls-76" d="M110.45,98.61c.53,1.16.05,1.37-.25,4.63a32.87,32.87,0,0,1-1.47,8.18c-.61,1.72-4.19-.42-3.85-2.89.29-2.09,3.2-9,3.76-10.13A1,1,0,0,1,110.45,98.61Z"/><path class="cls-77" d="M109.08,109.79c-.19,1-.95,3.14-4.08,7.71a35.47,35.47,0,0,1-3.62,4.61c-1.25,1.37-3.11.91-3.54,0-.7-1.41-.69-3.79-.08-4.55,3.45-4.29,6.36-7.38,7-8.56C105.72,107.3,109.3,108.61,109.08,109.79Z"/><path class="cls-78" d="M98.7,196.94a8.4,8.4,0,0,1,.2,1.43c.09.58.64.79,1,1.26s.9,1.28-1.25,1.32c-2.3,0-3.67,0-3.28-1.28a6.41,6.41,0,0,0,.44-2.22,1.35,1.35,0,0,1,.26-1.08C96.29,196.12,98.36,195.68,98.7,196.94Z"/><path class="cls-78" d="M121.8,171.35a5.36,5.36,0,0,0,2.32,1.52c1.22.46,3.76.57,2.38,1.1a8.76,8.76,0,0,1-3.87.24,18.61,18.61,0,0,0-2.63.11c-1.29.05-1.3-.16-1.2-1.57C118.94,170.81,121.16,170.29,121.8,171.35Z"/><path class="cls-62" d="M101.71,108.32c.26,2.62.34,3.19,1.48,4.26a6.15,6.15,0,0,0,4.17,1.23c1.34,0,2.22-1.62,2.52-2.72a16.12,16.12,0,0,0,.26-6.16,4.23,4.23,0,0,0-3.83-3.21C104.47,101.71,101.07,101.93,101.71,108.32Z"/><path class="cls-62" d="M103,112.92c-.07.91-.14,2-.17,2.9a2.5,2.5,0,0,0,2.18,2.53h.14c1.13,0,2.46-1,2.36-2.15-.06-.74-.09-1.48-.09-2.13a2.94,2.94,0,0,0-2-2.76h0A1.85,1.85,0,0,0,103,112.92Z"/><path class="cls-79" d="M97.81,124.1A54.26,54.26,0,0,1,100.19,143H116s-.09-14.8-1.15-22.91a6.07,6.07,0,0,0-3.34-4.65,11.35,11.35,0,0,0-4.21-.93h-2.92a11.06,11.06,0,0,0-3.08.38C97,116.23,96.59,120.1,97.81,124.1Z"/><path class="cls-80" d="M100.25,152.69s-1.37-3.32-.07-9.67H116s0,4.53,0,9.67Z"/><path class="cls-81" d="M103.37,173.37c1.27-5.15-4-6.05-5.65-2.33-2.35,5.26-2.16,22.09-2,25.45,0,.44-.06,1,.16,1.13a3.38,3.38,0,0,0,1.67.27c.59,0,1.17,0,1.23-.74C99.15,192.25,102.15,178.36,103.37,173.37Z"/><path class="cls-82" d="M108.1,153.38c.56-6.39-2-11.36-5.94-9.25a5.4,5.4,0,0,0-2.5,4.34c-.23,1.67-1.45,19.06-1.88,22.21-1,7.08,4.62,5.17,5.23,3.21C104.53,168.94,107.8,156.86,108.1,153.38Z"/><path class="cls-83" d="M118.91,171.44c2.69-7,4.77-20.44,8.82-25.42,2.57-3.16,6.93-1.47,4.91,2.88-2.16,4.66-7.38,13.25-10.67,22.61C121.64,172.43,118.61,172.27,118.91,171.44Z"/><path class="cls-84" d="M131.21,150.47c2-.55,4.18-7-3-6.68-3.17.13-14.33.06-16,.13s-4.15.27-4.49,1.1c-1.68,4.16,3.19,8.43,9.54,7.55C121.54,152,127.11,151.61,131.21,150.47Z"/><ellipse class="cls-62" cx="110.31" cy="108.12" rx="1.77" ry="0.93" transform="translate(-31.5 169.33) rotate(-67.77)"/><ellipse class="cls-62" cx="101.79" cy="108.12" rx="0.93" ry="1.77" transform="translate(-33.34 46.54) rotate(-22.23)"/><path class="cls-85" d="M102.52,103.16c1,1.52,5.94,1.66,7.55,1.1s1.5-3.67-.8-3.88c-1.29,0-.36.31-1.41.73C107.32,101.34,101.43,101.54,102.52,103.16Z"/><path class="cls-62" d="M133.79,113.24c.79-.28,7.15-2.13,7-.7-.17,1.58-2.53,2.87-3.38,3.2a3.41,3.41,0,0,1-3.81-.78C133.18,114.38,133,113.51,133.79,113.24Z"/><path class="cls-62" d="M134.06,112.85c.28-.27,1.92-1.88,2.24-1.59.49.44-.53,1.54-1.2,2.28-.37.4-1.12.69-1.41.35S133.62,113.28,134.06,112.85Z"/><path class="cls-86" d="M135.21,115.3c-.72,1.05-1.15.75-4.09,2.19a32.83,32.83,0,0,1-7.76,3c-1.79.37-1.81-3.8.47-4.79,1.93-.84,9.33-1.92,10.61-2A1,1,0,0,1,135.21,115.3Z"/><path class="cls-87" d="M125.14,120c-.92.41-3.13,1-8.66,1a26.16,26.16,0,0,1-4.82-.22,3.69,3.69,0,0,1-3.07-3c0-1.61.87-2.81,1.84-2.74,5.49.4,11.54,1.14,12.89,1C125.29,115.84,126.24,119.53,125.14,120Z"/><path class="cls-88" d="M108.05,102.9c1.52.92,1.87,1.72,1.83,3.59s-.84,5.07-4.29,5.79-4.26-2.71-4.47-5.07-.07-4.13,1.67-4.55C105.37,102,107.14,102.35,108.05,102.9Z"/><g class="cls-89"><path class="cls-90" d="M74.65,90.65c11.55-1.94,28,5.79,31.28,17.87,3.39,12.33-5.88,18.23,1.72,35.3,6,13.5-.89,28.31-2.52,40-1.79,12.83,4.63,19,2.51,30.48C102.78,240.63,103.09,248.4,85,254c-18.59,5.73-22.41-20.19-34.48-40.69-8.91-15.13-14-30.78-7.89-41.89,8.75-16,21.54.23,17.06-19C57,140.87,57.43,121,74.08,124S58,93.43,74.65,90.65Z"/></g><path class="cls-91" d="M62.57,105.54a7.16,7.16,0,0,0-2.78,6.88,16.35,16.35,0,0,1-.53,7.28c-.53,1.65-2.37,7.19,4.14,7.06s6.92-7.75,6.17-11.66.62-6.66-.36-7.84S65.95,103.07,62.57,105.54Z"/><path class="cls-62" d="M87.18,119.79c1.22-1,2.44-2,2.69-.92s.26,1-.61,1.81S86.15,120.59,87.18,119.79Z"/><path class="cls-92" d="M87.21,119.58c-.82.37-6.58,1.53-8.92,2.26l-.06,0c-1.16-.32-4.37-1.88-8.69-3.79a5.46,5.46,0,0,0-3.85.23c-.77.39-1,1.71.37,2.42a34.93,34.93,0,0,0,4.64,2,30.64,30.64,0,0,0,7.1,2,1.54,1.54,0,0,0,.74,0,20.57,20.57,0,0,0,6.25-2.37c2-1.07,2.85-.74,3.17-1.38S87.83,119.3,87.21,119.58Z"/><ellipse class="cls-75" cx="68.95" cy="189.82" rx="14.65" ry="1.11"/><path class="cls-93" d="M61,186.44a7,7,0,0,1,.15,1.17c.07.47.51.64.76,1s.71,1.11-1,1.14-2.88-.09-2.57-1.11a5.35,5.35,0,0,0,.35-1.81,1.14,1.14,0,0,1,.21-.88C59.09,185.78,60.71,185.42,61,186.44Z"/><path class="cls-94" d="M64.3,113.53c0,.13-.23,3-.27,5.2,0,1.08.76,2.1,1.54,2.13h0a1.92,1.92,0,0,0,1.59-2c-.12-1.92,0-3.88,0-3.91Z"/><path class="cls-95" d="M62.07,125.92a37.5,37.5,0,0,1,1.38,6,15.3,15.3,0,0,1,0,4.53c-.12.9-.3,1.8-.51,2.69-.08.34-.74,3.05-.77,3.35H74.56c-.12-2.43-2.89-10.07-1-15,1.3-3.42-.43-3.53-1.6-6.38A8.36,8.36,0,0,0,71,119a3.57,3.57,0,0,0-1.9-1.16,7,7,0,0,0-1.15-.16c-2.1-.17-7-.78-7.51,2.21a5.28,5.28,0,0,0,.25,2.42c.28.87.69,1.69,1,2.54C61.82,125.23,62,125.57,62.07,125.92Z"/><path class="cls-96" d="M62.2,150.39s-1.07-2.7-.05-7.88H74.56a75.88,75.88,0,0,1,.45,7.88Z"/><path class="cls-97" d="M64.65,167.25c1-4.19-3.13-4.93-4.43-1.9-1.84,4.29-1.7,18-1.6,20.74,0,.36.2.29.4.22a3,3,0,0,1,1.31-.25,1.15,1.15,0,0,1,.69.56C61.41,182.89,63.69,171.31,64.65,167.25Z"/><path class="cls-98" d="M68.36,151c.44-5.21-1.55-9.25-4.67-7.53a4.43,4.43,0,0,0-2,3.54c-.18,1.36-1.14,15.53-1.48,18.09-.76,5.77,3.63,4.22,4.11,2.62C65.56,163.63,68.12,153.79,68.36,151Z"/><path class="cls-99" d="M75.69,167c.16-3.91-3.5-3.83-4.42-.64-1.45,5,1.06,15.75,1.21,21.88.64-1.06,1.24-1.32,1.53-1.29a1,1,0,0,1,.71.4C74.63,179.24,75.52,171.15,75.69,167Z"/><path class="cls-100" d="M71.42,167.4c.49,1.6,4.68,3.44,4.25-2.37-.19-2.58-.71-16.8-.81-18.17s-.33-3.38-1-3.63c-3.31-1.25-6.53,2.84-5.66,8C68.78,154.66,70.41,164.09,71.42,167.4Z"/><path class="cls-62" d="M89.07,118.52a4.49,4.49,0,0,1,1.9-.94c.54,0-.63.58-1,.95S88.58,118.9,89.07,118.52Z"/><path class="cls-62" d="M62.66,136.63c1.51-.3,2.29-.81,3-.43s-.33,1.72-.84,1.93-2.33,1.16-2.86.65A1.35,1.35,0,0,1,62.66,136.63Z"/><path class="cls-101" d="M57.57,130c.86-1.34,2.78-3.86,5.14-7.13a5.46,5.46,0,0,0,.57-3.82c-.22-.83-1.46-1.36-2.44-.13a34.63,34.63,0,0,0-2.91,4.13c-2.57,4.11-3.28,6.07-3.5,7a1,1,0,0,0,.42,1l.09.14a20.54,20.54,0,0,0,4.67,4.79c1.8,1.45,1.81,2.32,2.54,2.36s1.4-.75.9-1.21S59.23,132,57.57,130Z"/><path class="cls-62" d="M62.38,111.87c.63,2.38.79,2.9,2,3.72a5.77,5.77,0,0,0,3.94.84c1.24-.2,1.94-1.65,2.06-2.72a17.8,17.8,0,0,0-.72-6.23,4,4,0,0,0-4-2.4C63.94,105.36,60.84,106.06,62.38,111.87Z"/><path class="cls-102" d="M74.87,187.3a4.24,4.24,0,0,0,1.76,1.33c.94.42,2.93.62,1.82,1a6.63,6.63,0,0,1-3,0,13.13,13.13,0,0,0-2.06-.12c-1,0-1-.07-.89-1.21C72.65,186.74,74.42,186.41,74.87,187.3Z"/><path class="cls-103" d="M69.06,106.28c1.21,1.46-5.2,5.54-6.76,5.53s-1.69-3-.75-4.66S66.21,102.83,69.06,106.28Z"/><path class="cls-104" d="M66.44,106.29c.47,1.33,2.92,1.26,3.51,2.32.37.66.13-1.58-.6-2.49S65.5,103.62,66.44,106.29Z"/><ellipse class="cls-62" cx="62.73" cy="111.81" rx="0.87" ry="1.66" transform="translate(-37.63 32.03) rotate(-22.22)"/><g class="cls-105"><path class="cls-106" d="M34.7,64.53c11.55-1.94,28,5.79,31.28,17.87,3.39,12.33-5.88,18.23,1.72,35.3,6,13.5-.89,28.31-2.52,40-1.79,12.83,4.63,19,2.52,30.48-4.88,26.34-4.56,34.1-22.67,39.68-18.59,5.73-22.41-20.19-34.48-40.69C1.64,172-3.43,156.4,2.67,145.29c8.75-16,21.54.23,17.06-19C17,114.75,17.48,94.84,34.13,97.84S18.07,67.32,34.7,64.53Z"/></g><path class="cls-107" d="M133.28,174.32h-14.5a6.33,6.33,0,0,0-6.12,4.72L106.89,201h38.26L139.4,179A6.33,6.33,0,0,0,133.28,174.32Z"/></g></g></g></svg>