<?xml version="1.0" encoding="utf-8"?>
<!-- Generator: Adobe Illustrator 21.0.0, SVG Export Plug-In . SVG Version: 6.00 Build 0)  -->
<svg version="1.1" id="Слой_1" xmlns="http://www.w3.org/2000/svg" xmlns:xlink="http://www.w3.org/1999/xlink" x="0px" y="0px"
	 viewBox="0 0 273.8 40.6" style="enable-background:new 0 0 273.8 40.6;" xml:space="preserve">
<style type="text/css">
	.st0{fill:url(#XMLID_7_);}
	.st1{fill:url(#XMLID_8_);}
	.st2{fill:url(#XMLID_9_);}
	.st3{fill:url(#SVGID_1_);}
	.st4{fill:url(#SVGID_2_);}
	.st5{fill:url(#SVGID_3_);}
	.st6{fill:url(#SVGID_4_);}
	.st7{fill:url(#SVGID_5_);}
	.st8{fill:url(#SVGID_6_);}
	.st9{fill:url(#SVGID_7_);}
	.st10{fill:url(#SVGID_8_);}
	.st11{fill:url(#SVGID_9_);}
	.st12{fill:url(#SVGID_10_);}
	.st13{fill:url(#SVGID_11_);}
</style>
<linearGradient id="XMLID_7_" gradientUnits="userSpaceOnUse" x1="50.7517" y1="37.27" x2="50.7517" y2="3.3566">
	<stop  offset="0" style="stop-color:#E9A854"/>
	<stop  offset="1" style="stop-color:#D24A43"/>
</linearGradient>
<path id="XMLID_3_" class="st0" d="M66.4,35.5l-3.1-3c-3.6,3.3-7.9,4.9-12.7,4.7C41.4,37,33.6,28,34.7,18.9
	c1.1-8.9,7.1-14.8,16-15.5C56,3,64.5,6,66.2,13C66.2,13,67.6,14.8,66.4,35.5z M60.7,20.3c0-5.9-3.8-9.8-9.4-9.8
	c-5.3,0-9.6,4.3-9.7,9.6c-0.1,5.6,4.3,9.9,9.9,9.9C57,30,60.7,26,60.7,20.3z"/>
<linearGradient id="XMLID_8_" gradientUnits="userSpaceOnUse" x1="20.9004" y1="33.526" x2="20.9004" y2="3.7531">
	<stop  offset="0" style="stop-color:#E9A854"/>
	<stop  offset="1" style="stop-color:#D24A43"/>
</linearGradient>
<path id="XMLID_2_" class="st1" d="M27.8,11.3c0,0-7.7,0-10.8,0c-1.9,0-3.1,1.1-3.1,2.8c0,1.6,1.2,2.8,3.1,2.9c2,0.1,4,0,6.1,0
	c7.2,0.1,12,6.1,10.3,13c-0.3,1.2-1.1,2.4-1.9,3.5c-0.3-2.8-1.5-5.2-3.5-7.1c-1.4-1.3-2.9-2-4.8-2c-2.6,0-5.2,0.2-7.7-0.1
	c-5.7-0.8-9.1-5.3-8.9-11c0.2-5.1,4.4-9.4,9.9-9.6l18.8,0L27.8,11.3z"/>
<linearGradient id="XMLID_9_" gradientUnits="userSpaceOnUse" x1="23.7569" y1="37.7382" x2="23.7569" y2="29.1065">
	<stop  offset="0" style="stop-color:#E9A854"/>
	<stop  offset="1" style="stop-color:#D24A43"/>
</linearGradient>
<path id="XMLID_1_" class="st2" d="M28,33.4c0,2.4-1.8,4.3-4.2,4.3c-2.4,0.1-4.4-1.8-4.4-4.3c0-2.4,1.8-4.3,4.2-4.3
	C26.1,29.1,28,30.9,28,33.4z"/>
		<linearGradient id="SVGID_1_" gradientUnits="userSpaceOnUse" x1="91.1659" y1="29.3645" x2="91.1659" y2="14.3789">
			<stop  offset="0" style="stop-color:#E9A854"/>
			<stop  offset="1" style="stop-color:#D24A43"/>
		</linearGradient>
		<path class="st3" d="M91,29.4c-2.6,0-4.6-0.4-6-1.3v-4.2c0.6,0.4,1.4,0.8,2.5,1.1c1,0.3,2.1,0.4,3.3,0.4c1.2,0,1.7-0.2,1.7-0.7
			c0-0.3-0.2-0.5-0.6-0.6l-0.6-0.2c-0.1,0-0.8-0.2-2-0.5c-1.6-0.5-2.8-1-3.5-1.6c-0.7-0.6-1-1.5-1-2.8c0-1.4,0.6-2.5,1.7-3.3
			c1.2-0.8,2.8-1.2,4.8-1.2c2.1,0,3.9,0.4,5.4,1.3v4c-1.6-1-3.4-1.5-5.2-1.5c-1.1,0-1.6,0.2-1.6,0.7c0,0.3,0.2,0.5,0.6,0.6l0.7,0.2
			c0.2,0,0.5,0.1,1,0.2c0.5,0.1,0.8,0.2,0.9,0.2c1.5,0.4,2.6,0.9,3.3,1.6c0.7,0.7,1,1.7,1,2.9c0,1.4-0.6,2.5-1.8,3.3
			C94.6,28.9,93,29.4,91,29.4z"/>
		<linearGradient id="SVGID_2_" gradientUnits="userSpaceOnUse" x1="106.9656" y1="29.3645" x2="106.9656" y2="14.7434">
			<stop  offset="0" style="stop-color:#E9A854"/>
			<stop  offset="1" style="stop-color:#D24A43"/>
		</linearGradient>
		<path class="st4" d="M104.9,29.4c-1.6,0-2.8-0.5-3.7-1.6c-0.9-1.1-1.4-2.5-1.4-4.3v-8.8h5v7.8c0,0.8,0.2,1.4,0.6,1.8
			c0.4,0.4,0.9,0.6,1.5,0.6c1,0,1.8-0.4,2.4-1.3v-8.9h5V29h-5v-1.6C107.9,28.7,106.5,29.4,104.9,29.4z"/>
		<linearGradient id="SVGID_3_" gradientUnits="userSpaceOnUse" x1="124.7579" y1="29" x2="124.7579" y2="14.3789">
			<stop  offset="0" style="stop-color:#E9A854"/>
			<stop  offset="1" style="stop-color:#D24A43"/>
		</linearGradient>
		<path class="st5" d="M122.5,20.1V29h-5V14.7h5v1.6c1.2-1.3,2.7-2,4.3-2c1.6,0,2.8,0.5,3.7,1.6c0.9,1.1,1.4,2.5,1.4,4.3V29h-5v-7.8
			c0-0.8-0.2-1.4-0.6-1.8c-0.4-0.4-0.9-0.6-1.5-0.6C124,18.8,123.2,19.2,122.5,20.1z"/>
		<linearGradient id="SVGID_4_" gradientUnits="userSpaceOnUse" x1="142.2978" y1="29" x2="142.2978" y2="14.3789">
			<stop  offset="0" style="stop-color:#E9A854"/>
			<stop  offset="1" style="stop-color:#D24A43"/>
		</linearGradient>
		<path class="st6" d="M140.1,20.1V29h-5V14.7h5v1.6c1.2-1.3,2.7-2,4.3-2c1.6,0,2.8,0.5,3.7,1.6c0.9,1.1,1.4,2.5,1.4,4.3V29h-5v-7.8
			c0-0.8-0.2-1.4-0.6-1.8c-0.4-0.4-0.9-0.6-1.5-0.6C141.5,18.8,140.7,19.2,140.1,20.1z"/>
		<linearGradient id="SVGID_5_" gradientUnits="userSpaceOnUse" x1="159.5149" y1="34.7813" x2="159.5149" y2="14.7434">
			<stop  offset="0" style="stop-color:#E9A854"/>
			<stop  offset="1" style="stop-color:#D24A43"/>
		</linearGradient>
		<path class="st7" d="M155.5,34.8c-1.2,0-2.3-0.2-3.2-0.6v-4.3c0.7,0.4,1.5,0.7,2.3,0.7c0.6,0,1.2-0.2,1.6-0.5
			c0.4-0.3,0.8-0.8,1.1-1.6l-6.1-13.8h5.3l3.2,8.6l3-8.6h5.2l-6.4,15.7C160.3,33.3,158.3,34.8,155.5,34.8z"/>
		<linearGradient id="SVGID_6_" gradientUnits="userSpaceOnUse" x1="176.535" y1="29.3371" x2="176.535" y2="15.1086">
			<stop  offset="0" style="stop-color:#E9A854"/>
			<stop  offset="1" style="stop-color:#D24A43"/>
		</linearGradient>
		<path class="st8" d="M174.4,29.3c-1.4,0-2.7-0.4-3.7-1.2c-1-0.8-1.5-1.9-1.5-3.3c0-1.4,0.5-2.5,1.6-3.3c1-0.8,2.4-1.2,4-1.2
			c1.8,0,3.4,0.4,4.9,1.3v-1.3c0-2.3-1.5-3.4-4.5-3.4c-1.6,0-3.1,0.5-4.4,1.4v-2c1.3-0.8,2.9-1.2,4.9-1.2c1.9,0,3.3,0.4,4.4,1.3
			c1.1,0.9,1.6,2.1,1.6,3.7v5.6c0,0.5,0.1,0.9,0.4,1.2c0.2,0.3,0.5,0.4,0.9,0.4c0.3,0,0.6-0.1,0.8-0.2v1.6c-0.3,0.2-0.7,0.3-1.3,0.3
			c-0.7,0-1.2-0.2-1.7-0.5c-0.5-0.4-0.7-0.9-0.9-1.6C178.5,28.5,176.7,29.3,174.4,29.3z M175,27.5c0.9,0,1.8-0.2,2.7-0.6
			c0.8-0.4,1.5-1,2-1.6v-1.9c-1.4-0.9-2.9-1.3-4.4-1.3c-1.2,0-2.2,0.2-2.9,0.7s-1.1,1.2-1.1,2c0,0.9,0.3,1.6,1,2
			C173,27.3,173.9,27.5,175,27.5z"/>
		<linearGradient id="SVGID_7_" gradientUnits="userSpaceOnUse" x1="193.1484" y1="34.7251" x2="193.1484" y2="15.1086">
			<stop  offset="0" style="stop-color:#E9A854"/>
			<stop  offset="1" style="stop-color:#D24A43"/>
		</linearGradient>
		<path class="st9" d="M198.2,28.1v-1.4c-1.2,1.6-3,2.4-5.2,2.4c-2,0-3.6-0.7-4.9-2c-1.3-1.4-1.9-3-1.9-5c0-1.9,0.6-3.6,1.9-5
			c1.3-1.4,2.9-2,4.9-2c2.3,0,4.1,0.8,5.2,2.4v-2.1h2v12.7c0,2.1-0.7,3.8-2.1,4.9c-1.4,1.1-3.1,1.7-5.2,1.7c-2.1,0-3.8-0.4-5.2-1.2
			v-2c1.5,0.9,3.2,1.4,5.1,1.4c1.7,0,3-0.4,4-1.2S198.2,29.7,198.2,28.1z M198.2,24.3v-4.4c-0.4-0.9-1-1.6-1.9-2.1
			c-0.9-0.6-1.8-0.8-2.9-0.8c-1.5,0-2.7,0.5-3.7,1.5c-1,1-1.5,2.2-1.5,3.7s0.5,2.7,1.5,3.7c1,1,2.2,1.5,3.7,1.5c1,0,2-0.3,2.9-0.8
			C197.2,25.9,197.8,25.2,198.2,24.3z"/>
		<linearGradient id="SVGID_8_" gradientUnits="userSpaceOnUse" x1="210.5615" y1="29.3371" x2="210.5615" y2="15.1086">
			<stop  offset="0" style="stop-color:#E9A854"/>
			<stop  offset="1" style="stop-color:#D24A43"/>
		</linearGradient>
		<path class="st10" d="M211.4,29.3c-2.1,0-3.9-0.7-5.3-2c-1.4-1.3-2.1-3-2.1-5.1c0-2,0.6-3.7,1.9-5.1c1.3-1.4,2.9-2,5-2
			c1.1,0,2,0.2,2.9,0.7c0.8,0.4,1.5,1,2,1.7c0.5,0.7,0.9,1.5,1.1,2.3c0.2,0.8,0.4,1.6,0.4,2.4v0.6H206c0.1,1.5,0.7,2.6,1.8,3.5
			c1.1,0.9,2.4,1.3,4,1.3c1.6,0,3-0.4,4.4-1.3V28C215.1,28.9,213.5,29.3,211.4,29.3z M206.1,21.1h9.1c-0.1-1-0.4-2-1.2-2.8
			c-0.7-0.9-1.8-1.3-3.2-1.3c-1.3,0-2.5,0.4-3.3,1.2C206.6,19,206.1,20,206.1,21.1z"/>
		<linearGradient id="SVGID_9_" gradientUnits="userSpaceOnUse" x1="227.2596" y1="29" x2="227.2596" y2="15.1086">
			<stop  offset="0" style="stop-color:#E9A854"/>
			<stop  offset="1" style="stop-color:#D24A43"/>
		</linearGradient>
		<path class="st11" d="M223,19.9V29h-2V15.4h2v2.1c1.4-1.6,3.2-2.4,5.4-2.4c1.7,0,2.9,0.5,3.8,1.5c0.9,1,1.3,2.4,1.3,4.2V29h-2
			v-7.8c0-2.8-1.3-4.2-3.8-4.2c-0.9,0-1.8,0.3-2.7,0.9C224.1,18.5,223.4,19.1,223,19.9z"/>
		<linearGradient id="SVGID_10_" gradientUnits="userSpaceOnUse" x1="242.8903" y1="29.3371" x2="242.8903" y2="15.1086">
			<stop  offset="0" style="stop-color:#E9A854"/>
			<stop  offset="1" style="stop-color:#D24A43"/>
		</linearGradient>
		<path class="st12" d="M244.3,29.3c-2.1,0-3.8-0.7-5.2-2c-1.4-1.4-2-3.1-2-5.1c0-2,0.7-3.7,2.1-5.1c1.4-1.4,3.1-2,5.2-2
			c1.6,0,2.9,0.3,4.1,1V18c-1.2-0.7-2.5-1-3.8-1c-1.6,0-2.9,0.5-3.9,1.5c-1,1-1.5,2.2-1.5,3.8c0,1.5,0.5,2.8,1.5,3.8
			c1,1,2.3,1.5,3.9,1.5c1.5,0,2.9-0.4,4.1-1.2v1.9C247.4,29,246,29.3,244.3,29.3z"/>
		<linearGradient id="SVGID_11_" gradientUnits="userSpaceOnUse" x1="258.1572" y1="34.7251" x2="258.1572" y2="15.445">
			<stop  offset="0" style="stop-color:#E9A854"/>
			<stop  offset="1" style="stop-color:#D24A43"/>
		</linearGradient>
		<path class="st13" d="M253.5,34.7c-1,0-1.7-0.1-2.2-0.4v-1.9c0.6,0.3,1.2,0.4,1.9,0.4c0.8,0,1.5-0.3,2.1-1s1.2-1.8,1.9-3.4
			l-6-13.1h2.2l4.8,10.7l4.7-10.7h2.2l-6.7,15.1C257.2,33.3,255.6,34.7,253.5,34.7z"/>
</svg>
