<svg version="1.1" id="Слой_1" xmlns="http://www.w3.org/2000/svg" xmlns:xlink="http://www.w3.org/1999/xlink" x="0px" y="0px" width="225" height="200"
	 viewBox="0 0 283.5 283.5" style="enable-background:new 0 0 283.5 283.5;" xml:space="preserve">
<style type="text/css">
	.st0{fill:url(#XMLID_7_);}
	.st1{fill:url(#XMLID_8_);}
	.st2{fill:url(#XMLID_9_);}
	.st3{fill:url(#SVGID_1_);}
	.st4{fill:url(#SVGID_2_);}
	.st5{fill:url(#SVGID_3_);}
	.st6{fill:url(#SVGID_4_);}
	.st7{fill:url(#SVGID_5_);}
	.st8{fill:url(#SVGID_6_);}
	.st9{fill:url(#SVGID_7_);}
	.st10{fill:url(#SVGID_8_);}
	.st11{fill:url(#SVGID_9_);}
	.st12{fill:url(#SVGID_10_);}
	.st13{fill:url(#SVGID_11_);}
</style>
<linearGradient id="XMLID_7_" gradientUnits="userSpaceOnUse" x1="60.4183" y1="94.27" x2="60.4183" y2="60.3566">
	<stop  offset="0" style="stop-color:#E9A854"/>
	<stop  offset="1" style="stop-color:#D24A43"/>
</linearGradient>
<path id="XMLID_3_" class="st0" d="M76.1,92.5l-3.1-3c-3.6,3.3-7.9,4.9-12.7,4.7C51.1,94,43.3,85,44.4,75.9
	c1.1-8.9,7.1-14.8,16-15.5C65.7,60,74.2,63,75.9,70C75.9,70,77.3,71.8,76.1,92.5z M70.4,77.3c0-5.9-3.8-9.8-9.4-9.8
	c-5.3,0-9.6,4.3-9.7,9.6c-0.1,5.6,4.3,9.9,9.9,9.9C66.7,87,70.4,83,70.4,77.3z"/>
<linearGradient id="XMLID_8_" gradientUnits="userSpaceOnUse" x1="30.567" y1="90.526" x2="30.567" y2="60.7531">
	<stop  offset="0" style="stop-color:#E9A854"/>
	<stop  offset="1" style="stop-color:#D24A43"/>
</linearGradient>
<path id="XMLID_2_" class="st1" d="M37.5,68.3c0,0-7.7,0-10.8,0c-1.9,0-3.1,1.1-3.1,2.8c0,1.6,1.2,2.8,3.1,2.9c2,0.1,4,0,6.1,0
	C40,74.1,44.7,80,43,87c-0.3,1.2-1.1,2.4-1.9,3.5c-0.3-2.8-1.5-5.2-3.5-7.1c-1.4-1.3-2.9-2-4.8-2c-2.6,0-5.2,0.2-7.7-0.1
	c-5.7-0.8-9.1-5.3-8.9-11c0.2-5.1,4.4-9.4,9.9-9.6l18.8,0L37.5,68.3z"/>
<linearGradient id="XMLID_9_" gradientUnits="userSpaceOnUse" x1="33.4235" y1="94.7382" x2="33.4235" y2="86.1065">
	<stop  offset="0" style="stop-color:#E9A854"/>
	<stop  offset="1" style="stop-color:#D24A43"/>
</linearGradient>
<path id="XMLID_1_" class="st2" d="M37.7,90.4c0,2.4-1.8,4.3-4.2,4.3c-2.4,0.1-4.4-1.8-4.4-4.3c0-2.4,1.8-4.3,4.2-4.3
	C35.8,86.1,37.7,87.9,37.7,90.4z"/>
		<linearGradient id="SVGID_1_" gradientUnits="userSpaceOnUse" x1="100.8325" y1="86.3645" x2="100.8325" y2="71.3789">
			<stop  offset="0" style="stop-color:#E9A854"/>
			<stop  offset="1" style="stop-color:#D24A43"/>
		</linearGradient>
		<path class="st3" d="M100.7,86.4c-2.6,0-4.6-0.4-6-1.3v-4.2c0.6,0.4,1.4,0.8,2.5,1.1c1,0.3,2.1,0.4,3.3,0.4c1.2,0,1.7-0.2,1.7-0.7
			c0-0.3-0.2-0.5-0.6-0.6l-0.6-0.2c-0.1,0-0.8-0.2-2-0.5c-1.6-0.5-2.8-1-3.5-1.6c-0.7-0.6-1-1.5-1-2.8c0-1.4,0.6-2.5,1.7-3.3
			c1.2-0.8,2.8-1.2,4.8-1.2c2.1,0,3.9,0.4,5.4,1.3v4c-1.6-1-3.4-1.5-5.2-1.5c-1.1,0-1.6,0.2-1.6,0.7c0,0.3,0.2,0.5,0.6,0.6l0.7,0.2
			c0.2,0,0.5,0.1,1,0.2c0.5,0.1,0.8,0.2,0.9,0.2c1.5,0.4,2.6,0.9,3.3,1.6c0.7,0.7,1,1.7,1,2.9c0,1.4-0.6,2.5-1.8,3.3
			C104.2,85.9,102.7,86.4,100.7,86.4z"/>
		<linearGradient id="SVGID_2_" gradientUnits="userSpaceOnUse" x1="116.6323" y1="86.3645" x2="116.6323" y2="71.7434">
			<stop  offset="0" style="stop-color:#E9A854"/>
			<stop  offset="1" style="stop-color:#D24A43"/>
		</linearGradient>
		<path class="st4" d="M114.5,86.4c-1.6,0-2.8-0.5-3.7-1.6c-0.9-1.1-1.4-2.5-1.4-4.3v-8.8h5v7.8c0,0.8,0.2,1.4,0.6,1.8
			c0.4,0.4,0.9,0.6,1.5,0.6c1,0,1.8-0.4,2.4-1.3v-8.9h5V86h-5v-1.6C117.6,85.7,116.2,86.4,114.5,86.4z"/>
		<linearGradient id="SVGID_3_" gradientUnits="userSpaceOnUse" x1="134.4246" y1="86" x2="134.4246" y2="71.3789">
			<stop  offset="0" style="stop-color:#E9A854"/>
			<stop  offset="1" style="stop-color:#D24A43"/>
		</linearGradient>
		<path class="st5" d="M132.2,77.1V86h-5V71.7h5v1.6c1.2-1.3,2.7-2,4.3-2c1.6,0,2.8,0.5,3.7,1.6c0.9,1.1,1.4,2.5,1.4,4.3V86h-5v-7.8
			c0-0.8-0.2-1.4-0.6-1.8c-0.4-0.4-0.9-0.6-1.5-0.6C133.6,75.8,132.8,76.2,132.2,77.1z"/>
		<linearGradient id="SVGID_4_" gradientUnits="userSpaceOnUse" x1="151.9644" y1="86" x2="151.9644" y2="71.3789">
			<stop  offset="0" style="stop-color:#E9A854"/>
			<stop  offset="1" style="stop-color:#D24A43"/>
		</linearGradient>
		<path class="st6" d="M149.7,77.1V86h-5V71.7h5v1.6c1.2-1.3,2.7-2,4.3-2c1.6,0,2.8,0.5,3.7,1.6c0.9,1.1,1.4,2.5,1.4,4.3V86h-5v-7.8
			c0-0.8-0.2-1.4-0.6-1.8c-0.4-0.4-0.9-0.6-1.5-0.6C151.2,75.8,150.4,76.2,149.7,77.1z"/>
		<linearGradient id="SVGID_5_" gradientUnits="userSpaceOnUse" x1="169.1816" y1="91.7813" x2="169.1816" y2="71.7434">
			<stop  offset="0" style="stop-color:#E9A854"/>
			<stop  offset="1" style="stop-color:#D24A43"/>
		</linearGradient>
		<path class="st7" d="M165.2,91.8c-1.2,0-2.3-0.2-3.2-0.6v-4.3c0.7,0.4,1.5,0.7,2.3,0.7c0.6,0,1.2-0.2,1.6-0.5
			c0.4-0.3,0.8-0.8,1.1-1.6l-6.1-13.8h5.3l3.2,8.6l3-8.6h5.2l-6.4,15.7C169.9,90.3,168,91.8,165.2,91.8z"/>
		<linearGradient id="SVGID_6_" gradientUnits="userSpaceOnUse" x1="186.2017" y1="86.3371" x2="186.2017" y2="72.1086">
			<stop  offset="0" style="stop-color:#E9A854"/>
			<stop  offset="1" style="stop-color:#D24A43"/>
		</linearGradient>
		<path class="st8" d="M184.1,86.3c-1.4,0-2.7-0.4-3.7-1.2c-1-0.8-1.5-1.9-1.5-3.3c0-1.4,0.5-2.5,1.6-3.3c1-0.8,2.4-1.2,4-1.2
			c1.8,0,3.4,0.4,4.9,1.3v-1.3c0-2.3-1.5-3.4-4.5-3.4c-1.6,0-3.1,0.5-4.4,1.4v-2c1.3-0.8,2.9-1.2,4.9-1.2c1.9,0,3.3,0.4,4.4,1.3
			c1.1,0.9,1.6,2.1,1.6,3.7v5.6c0,0.5,0.1,0.9,0.4,1.2c0.2,0.3,0.5,0.4,0.9,0.4c0.3,0,0.6-0.1,0.8-0.2v1.6c-0.3,0.2-0.7,0.3-1.3,0.3
			c-0.7,0-1.2-0.2-1.7-0.5c-0.5-0.4-0.7-0.9-0.9-1.6C188.2,85.5,186.4,86.3,184.1,86.3z M184.7,84.5c0.9,0,1.8-0.2,2.7-0.6
			c0.8-0.4,1.5-1,2-1.6v-1.9c-1.4-0.9-2.9-1.3-4.4-1.3c-1.2,0-2.2,0.2-2.9,0.7s-1.1,1.2-1.1,2c0,0.9,0.3,1.6,1,2
			C182.7,84.3,183.6,84.5,184.7,84.5z"/>
		<linearGradient id="SVGID_7_" gradientUnits="userSpaceOnUse" x1="202.8151" y1="91.7251" x2="202.8151" y2="72.1086">
			<stop  offset="0" style="stop-color:#E9A854"/>
			<stop  offset="1" style="stop-color:#D24A43"/>
		</linearGradient>
		<path class="st9" d="M207.8,85.1v-1.4c-1.2,1.6-3,2.4-5.2,2.4c-2,0-3.6-0.7-4.9-2c-1.3-1.4-1.9-3-1.9-5c0-1.9,0.6-3.6,1.9-5
			c1.3-1.4,2.9-2,4.9-2c2.3,0,4.1,0.8,5.2,2.4v-2.1h2v12.7c0,2.1-0.7,3.8-2.1,4.9c-1.4,1.1-3.1,1.7-5.2,1.7c-2.1,0-3.8-0.4-5.2-1.2
			v-2c1.5,0.9,3.2,1.4,5.1,1.4c1.7,0,3-0.4,4-1.2S207.8,86.7,207.8,85.1z M207.8,81.3v-4.4c-0.4-0.9-1-1.6-1.9-2.1
			c-0.9-0.6-1.8-0.8-2.9-0.8c-1.5,0-2.7,0.5-3.7,1.5c-1,1-1.5,2.2-1.5,3.7s0.5,2.7,1.5,3.7c1,1,2.2,1.5,3.7,1.5c1,0,2-0.3,2.9-0.8
			C206.8,82.9,207.5,82.2,207.8,81.3z"/>
		<linearGradient id="SVGID_8_" gradientUnits="userSpaceOnUse" x1="220.2282" y1="86.3371" x2="220.2282" y2="72.1086">
			<stop  offset="0" style="stop-color:#E9A854"/>
			<stop  offset="1" style="stop-color:#D24A43"/>
		</linearGradient>
		<path class="st10" d="M221.1,86.3c-2.1,0-3.9-0.7-5.3-2c-1.4-1.3-2.1-3-2.1-5.1c0-2,0.6-3.7,1.9-5.1c1.3-1.4,2.9-2,5-2
			c1.1,0,2,0.2,2.9,0.7c0.8,0.4,1.5,1,2,1.7c0.5,0.7,0.9,1.5,1.1,2.3c0.2,0.8,0.4,1.6,0.4,2.4v0.6h-11.1c0.1,1.5,0.7,2.6,1.8,3.5
			c1.1,0.9,2.4,1.3,4,1.3c1.6,0,3-0.4,4.4-1.3V85C224.7,85.9,223.1,86.3,221.1,86.3z M215.7,78.1h9.1c-0.1-1-0.4-2-1.2-2.8
			c-0.7-0.9-1.8-1.3-3.2-1.3c-1.3,0-2.5,0.4-3.3,1.2C216.3,76,215.8,77,215.7,78.1z"/>
		<linearGradient id="SVGID_9_" gradientUnits="userSpaceOnUse" x1="236.9263" y1="86" x2="236.9263" y2="72.1086">
			<stop  offset="0" style="stop-color:#E9A854"/>
			<stop  offset="1" style="stop-color:#D24A43"/>
		</linearGradient>
		<path class="st11" d="M232.6,76.9V86h-2V72.4h2v2.1c1.4-1.6,3.2-2.4,5.4-2.4c1.7,0,2.9,0.5,3.8,1.5c0.9,1,1.3,2.4,1.3,4.2V86h-2
			v-7.8c0-2.8-1.3-4.2-3.8-4.2c-0.9,0-1.8,0.3-2.7,0.9C233.7,75.5,233.1,76.1,232.6,76.9z"/>
		<linearGradient id="SVGID_10_" gradientUnits="userSpaceOnUse" x1="252.557" y1="86.3371" x2="252.557" y2="72.1086">
			<stop  offset="0" style="stop-color:#E9A854"/>
			<stop  offset="1" style="stop-color:#D24A43"/>
		</linearGradient>
		<path class="st12" d="M254,86.3c-2.1,0-3.8-0.7-5.2-2c-1.4-1.4-2-3.1-2-5.1c0-2,0.7-3.7,2.1-5.1c1.4-1.4,3.1-2,5.2-2
			c1.6,0,2.9,0.3,4.1,1V75c-1.2-0.7-2.5-1-3.8-1c-1.6,0-2.9,0.5-3.9,1.5c-1,1-1.5,2.2-1.5,3.8c0,1.5,0.5,2.8,1.5,3.8
			c1,1,2.3,1.5,3.9,1.5c1.5,0,2.9-0.4,4.1-1.2v1.9C257.1,86,255.6,86.3,254,86.3z"/>
		<linearGradient id="SVGID_11_" gradientUnits="userSpaceOnUse" x1="267.8238" y1="91.7251" x2="267.8238" y2="72.445">
			<stop  offset="0" style="stop-color:#E9A854"/>
			<stop  offset="1" style="stop-color:#D24A43"/>
		</linearGradient>
		<path class="st13" d="M263.2,91.7c-1,0-1.7-0.1-2.2-0.4v-1.9c0.6,0.3,1.2,0.4,1.9,0.4c0.8,0,1.5-0.3,2.1-1
			c0.6-0.7,1.2-1.8,1.9-3.4l-6-13.1h2.2l4.8,10.7l4.7-10.7h2.2l-6.7,15.1C266.8,90.3,265.2,91.7,263.2,91.7z"/>
</svg>
